/* XPM */
static char * canape_xpm[] = {
"40 40 489 2",
"  	c #309E99",
". 	c #329D98",
"+ 	c #379F9A",
"@ 	c #41A09C",
"# 	c #369F9A",
"$ 	c #329E99",
"% 	c #2F9D98",
"& 	c #309D98",
"* 	c #3E9C97",
"= 	c #399A95",
"- 	c #539894",
"; 	c #3F9B96",
"> 	c #379C97",
", 	c #4D9995",
"' 	c #4A9A96",
") 	c #4E9994",
"! 	c #549994",
"~ 	c #4E9A95",
"{ 	c #489792",
"] 	c #459691",
"^ 	c #469691",
"/ 	c #419590",
"( 	c #429490",
"_ 	c #3D938E",
": 	c #61928D",
"< 	c #319D98",
"[ 	c #3F9F9A",
"} 	c #369E99",
"| 	c #319D99",
"1 	c #399F9A",
"2 	c #359E99",
"3 	c #449F9B",
"4 	c #6D7D78",
"5 	c #59361C",
"6 	c #6A4323",
"7 	c #744C24",
"8 	c #815326",
"9 	c #7E4D20",
"0 	c #834F1E",
"a 	c #844F20",
"b 	c #84501E",
"c 	c #85501F",
"d 	c #855021",
"e 	c #85511E",
"f 	c #855120",
"g 	c #845020",
"h 	c #845220",
"i 	c #805025",
"j 	c #6E481E",
"k 	c #63411E",
"l 	c #704A25",
"m 	c #67431D",
"n 	c #523104",
"o 	c #5B7672",
"p 	c #6C9996",
"q 	c #64928F",
"r 	c #41A19C",
"s 	c #3B9F9A",
"t 	c #489893",
"u 	c #39615A",
"v 	c #5E3100",
"w 	c #814C19",
"x 	c #845120",
"y 	c #845121",
"z 	c #845018",
"A 	c #764002",
"B 	c #695343",
"C 	c #648380",
"D 	c #48A29D",
"E 	c #339E99",
"F 	c #50A09C",
"G 	c #2B716E",
"H 	c #5E3B20",
"I 	c #7F5123",
"J 	c #865121",
"K 	c #855221",
"L 	c #865322",
"M 	c #573310",
"N 	c #748E8D",
"O 	c #3DA09B",
"P 	c #3A9F9A",
"Q 	c #4B4E44",
"R 	c #654022",
"S 	c #84511F",
"T 	c #4D2C09",
"U 	c #628C87",
"V 	c #4C625C",
"W 	c #502E18",
"X 	c #824F23",
"Y 	c #845325",
"Z 	c #7A4A21",
"` 	c #845023",
" .	c #7D4D22",
"..	c #855124",
"+.	c #7E938F",
"@.	c #3A9B96",
"#.	c #583314",
"$.	c #6D4321",
"%.	c #874F1F",
"&.	c #6A4422",
"*.	c #6C4422",
"=.	c #835020",
"-.	c #714720",
";.	c #462C1B",
">.	c #7C4C20",
",.	c #845122",
"'.	c #824F24",
").	c #472F1F",
"!.	c #613C22",
"~.	c #6B655D",
"{.	c #58A19D",
"].	c #5D3419",
"^.	c #6F4425",
"/.	c #85521F",
"(.	c #814F22",
"_.	c #5A381F",
":.	c #4B2F1B",
"<.	c #804F25",
"[.	c #83501F",
"}.	c #824D22",
"|.	c #472E1C",
"1.	c #845024",
"2.	c #815120",
"3.	c #663E1E",
"4.	c #855224",
"5.	c #460502",
"6.	c #68918E",
"7.	c #5FA29E",
"8.	c #503014",
"9.	c #5B391F",
"0.	c #855220",
"a.	c #84511E",
"b.	c #835124",
"c.	c #824E24",
"d.	c #825020",
"e.	c #865021",
"f.	c #654121",
"g.	c #240000",
"h.	c #759391",
"i.	c #507B76",
"j.	c #3FA09B",
"k.	c #349E99",
"l.	c #589E9A",
"m.	c #422000",
"n.	c #50301C",
"o.	c #764824",
"p.	c #724820",
"q.	c #73471F",
"r.	c #784922",
"s.	c #7C4C21",
"t.	c #825022",
"u.	c #4D3322",
"v.	c #7D4C23",
"w.	c #87562A",
"x.	c #713400",
"y.	c #543F38",
"z.	c #6E8583",
"A.	c #658884",
"B.	c #59A19D",
"C.	c #60A29E",
"D.	c #5A504C",
"E.	c #61401B",
"F.	c #825125",
"G.	c #844F21",
"H.	c #855022",
"I.	c #63442C",
"J.	c #603E25",
"K.	c #533219",
"L.	c #865326",
"M.	c #85511F",
"N.	c #683F20",
"O.	c #63391E",
"P.	c #623A1A",
"Q.	c #63391A",
"R.	c #71431D",
"S.	c #63411D",
"T.	c #543821",
"U.	c #38240F",
"V.	c #6A8785",
"W.	c #56A6A2",
"X.	c #5DA19D",
"Y.	c #4F3629",
"Z.	c #804A20",
"`.	c #7E4C22",
" +	c #7E4D22",
".+	c #6D4623",
"++	c #684120",
"@+	c #7B4D22",
"#+	c #674122",
"$+	c #684022",
"%+	c #865220",
"&+	c #865221",
"*+	c #855222",
"=+	c #855123",
"-+	c #865223",
";+	c #835024",
">+	c #7A4C21",
",+	c #573720",
"'+	c #623A1D",
")+	c #643B1A",
"!+	c #633A1C",
"~+	c #60381B",
"{+	c #5F3E28",
"]+	c #5C381C",
"^+	c #784C2C",
"/+	c #5E3910",
"(+	c #43908B",
"_+	c #56361B",
":+	c #60391C",
"<+	c #60391B",
"[+	c #5F371D",
"}+	c #664224",
"|+	c #885122",
"1+	c #7D4C20",
"2+	c #624325",
"3+	c #7F4C26",
"4+	c #7B4D23",
"5+	c #7C4C25",
"6+	c #7B4C24",
"7+	c #754723",
"8+	c #744924",
"9+	c #714924",
"0+	c #784B27",
"a+	c #734622",
"b+	c #6F4520",
"c+	c #6D431F",
"d+	c #6C4221",
"e+	c #6B4522",
"f+	c #684123",
"g+	c #624023",
"h+	c #6B421E",
"i+	c #6A4322",
"j+	c #774721",
"k+	c #784820",
"l+	c #6B4222",
"m+	c #5C391D",
"n+	c #5D391D",
"o+	c #533118",
"p+	c #6B4523",
"q+	c #7D4C24",
"r+	c #6F4426",
"s+	c #3B9893",
"t+	c #5C371E",
"u+	c #623A1C",
"v+	c #57331D",
"w+	c #704622",
"x+	c #865222",
"y+	c #825024",
"z+	c #5E3C21",
"A+	c #845021",
"B+	c #865020",
"C+	c #835122",
"D+	c #835120",
"E+	c #83501E",
"F+	c #784B21",
"G+	c #653F1E",
"H+	c #825124",
"I+	c #835221",
"J+	c #855020",
"K+	c #835225",
"L+	c #5E3E23",
"M+	c #7B4E27",
"N+	c #7C5128",
"O+	c #774C22",
"P+	c #714A20",
"Q+	c #77491F",
"R+	c #7D4D20",
"S+	c #734922",
"T+	c #4C3625",
"U+	c #6D4426",
"V+	c #7A4B22",
"W+	c #684323",
"X+	c #469A95",
"Y+	c #5C3820",
"Z+	c #56371B",
"`+	c #774C27",
" @	c #855121",
".@	c #844F24",
"+@	c #523723",
"@@	c #724725",
"#@	c #714824",
"$@	c #6F4522",
"%@	c #704724",
"&@	c #7F5129",
"*@	c #794C25",
"=@	c #734826",
"-@	c #6D4526",
";@	c #533923",
">@	c #764D2C",
",@	c #6E4626",
"'@	c #603E20",
")@	c #633F25",
"!@	c #664126",
"~@	c #674127",
"{@	c #664127",
"]@	c #623F25",
"^@	c #492F1D",
"/@	c #55371F",
"(@	c #5B3720",
"_@	c #573620",
":@	c #57381F",
"<@	c #643D1E",
"[@	c #613B1D",
"}@	c #59361D",
"|@	c #603F25",
"1@	c #76491F",
"2@	c #644021",
"3@	c #409893",
"4@	c #58371C",
"5@	c #754A28",
"6@	c #84521F",
"7@	c #815025",
"8@	c #462E1B",
"9@	c #53351B",
"0@	c #522F18",
"a@	c #553118",
"b@	c #53331A",
"c@	c #503019",
"d@	c #512E18",
"e@	c #4F3016",
"f@	c #53301A",
"g@	c #4A2E1A",
"h@	c #58341B",
"i@	c #5C381D",
"j@	c #5C381E",
"k@	c #643A1C",
"l@	c #63391C",
"m@	c #653A1C",
"n@	c #603B19",
"o@	c #502E1B",
"p@	c #5E3B1E",
"q@	c #633C1C",
"r@	c #653B1E",
"s@	c #5F3A1C",
"t@	c #5B371A",
"u@	c #59361A",
"v@	c #55331D",
"w@	c #6A4625",
"x@	c #76491E",
"y@	c #3A9490",
"z@	c #4D301A",
"A@	c #5F391D",
"B@	c #6C4623",
"C@	c #875120",
"D@	c #7C4E22",
"E@	c #51331F",
"F@	c #62391B",
"G@	c #633B1B",
"H@	c #643A1D",
"I@	c #633B1C",
"J@	c #623A1B",
"K@	c #462B16",
"L@	c #492C19",
"M@	c #4A2D17",
"N@	c #492D17",
"O@	c #492A1B",
"P@	c #452716",
"Q@	c #3E2516",
"R@	c #2F1D10",
"S@	c #2D1B10",
"T@	c #54321D",
"U@	c #603B22",
"V@	c #422B19",
"W@	c #331C11",
"X@	c #3A2216",
"Y@	c #462816",
"Z@	c #472C17",
"`@	c #472A16",
" #	c #6B4726",
".#	c #76481D",
"+#	c #643D1C",
"@#	c #4D9C98",
"##	c #381D09",
"$#	c #633B1D",
"%#	c #613B1E",
"&#	c #634022",
"*#	c #784B22",
"=#	c #603E23",
"-#	c #6F4523",
";#	c #683E1A",
">#	c #5F391C",
",#	c #55311B",
"'#	c #52301A",
")#	c #4F2C16",
"!#	c #4B2A14",
"~#	c #401F12",
"{#	c #844D21",
"]#	c #7B4C22",
"^#	c #784B1E",
"/#	c #704621",
"(#	c #6D431C",
"_#	c #70431E",
":#	c #77481D",
"<#	c #804F1F",
"[#	c #804E22",
"}#	c #794B1D",
"|#	c #784A20",
"1#	c #784A1E",
"2#	c #654024",
"3#	c #77491E",
"4#	c #623A19",
"5#	c #59928E",
"6#	c #499F9B",
"7#	c #637873",
"8#	c #613612",
"9#	c #603B20",
"0#	c #5A391C",
"a#	c #865224",
"b#	c #754A23",
"c#	c #684023",
"d#	c #865321",
"e#	c #85531E",
"f#	c #654021",
"g#	c #5D3917",
"h#	c #5F9995",
"i#	c #3B9E99",
"j#	c #5D3000",
"k#	c #62391C",
"l#	c #533722",
"m#	c #895222",
"n#	c #7A4F26",
"o#	c #663E23",
"p#	c #623E1E",
"q#	c #764720",
"r#	c #593517",
"s#	c #4A9B96",
"t#	c #3E9F9B",
"u#	c #6E625D",
"v#	c #643A19",
"w#	c #633A1E",
"x#	c #4A3522",
"y#	c #875122",
"z#	c #835025",
"A#	c #5E3B1F",
"B#	c #845223",
"C#	c #644123",
"D#	c #7A4A22",
"E#	c #885425",
"F#	c #583717",
"G#	c #718481",
"H#	c #5E2F00",
"I#	c #432F21",
"J#	c #845125",
"K#	c #845126",
"L#	c #613B21",
"M#	c #844E18",
"N#	c #834C0F",
"O#	c #7E4A00",
"P#	c #7C4400",
"Q#	c #774000",
"R#	c #723A00",
"S#	c #6F3400",
"T#	c #6D3B00",
"U#	c #775333",
"V#	c #7F5E49",
"W#	c #846B5C",
"X#	c #8D786C",
"Y#	c #917F76",
"Z#	c #8A7E77",
"`#	c #86817E",
" $	c #8C8A88",
".$	c #889390",
"+$	c #729794",
"@$	c #639B97",
"#$	c #234844",
"$$	c #7F5D3E",
"%$	c #835123",
"&$	c #7F4E23",
"*$	c #663F26",
"=$	c #825122",
"-$	c #81511E",
";$	c #825223",
">$	c #855125",
",$	c #825225",
"'$	c #794E25",
")$	c #6D4429",
"!$	c #603B1F",
"~$	c #573F2D",
"{$	c #7C7670",
"]$	c #599C97",
"^$	c #4B9F9B",
"/$	c #3C9F9A",
"($	c #319E99",
"_$	c #4AA29D",
":$	c #52A39E",
"<$	c #4DA29D",
"[$	c #339D98",
"}$	c #3D9F9A",
"|$	c #55A6A1",
"                                                                                ",
"                                                                                ",
"                                                                                ",
"                                                                                ",
"                                                                                ",
"                                                                                ",
"                                                                                ",
"                                                                                ",
". + @ # $ % % & * = % - & ; > , ' ) ! > ~ { ] ^ / ( _ : < [ } % % | 1 2 & % % % ",
"2 & & & % 2 3 4 5 6 7 8 9 0 a b c d e f g h i j k l m n o p q r % % & & < % % % ",
"2 % & s t u v w f h x x x x x x x x x x x x x x x y x f z A B C D % % E % % % % ",
"% % F G H I J x x x x x x x x x x x x x x x x x x x x x x K L M N O % % % % % % ",
"% P Q R S y e x x x x x x x x x x x x x x x x x x x x x x x x x T U & % % % % % ",
"< V W X x x x x x x x f x x x x x x Y Z x x x x x x `  .L x x x ..+.@.% % % % % ",
". #.$.%.S x x x x x &.*.=.x x x x x -.;.>.f x x x ,.'.).!.x x x x ~.{.% % % % % ",
". ].^./.x x x x x (._.:.<.[.x x x f }.|.1.c x x x x 2.3.4.x x x f 5.6.% % % % % ",
"7.8.9.0.S a.y x x x b.c.S x x x x x x d.x x x x x x x =.x x x e.f.g.h.i.j.k.2 % ",
"l.m.n.o.p.q.r.s.K x y S x x x x x x x x x x x x x x x x x x t.u.v.w.x.y.z.A.B.2 ",
"C.D.E.F.G.H.I.J.K.L.x x x x x x x x x x x x x x x x x x x M.N.O.P.Q.R.S.T.U.V.W.",
"X.Y.Z.`. +.+++@+#+$+f x x f f M.x M.0.%+%+&+%+%+%+*+=+-+;+>+,+'+)+!+~+{+]+^+/+(+",
"l._+:+<+[+}+|+` 1+2+3+4+5+6+7+8+9+0+a+b+c+*.d+e+f+g+c+h+i+j+k+l+m+n+o+p+q+h r+s+",
"< t+u+u+v+w+x+x y+z+A+B+g C+D+E+F+G+H+I+x J+J+I+K+4+L+M+N+O+P+Q+R+S+T+U+V+%+W+X+",
"& Y+u+u+Z+`+ @,..@+@@@#@$@%@&@*@=@-@;@>@,@'@)@!@~@{@]@^@/@(@_@:@<@[@}@|@1@f 2@3@",
"% }@u+u+4@5@6@y 7@8@9@0@a@b@c@d@e@f@g@h@i@j@k@l@m@u+n@o@p@q@r@s@t@u@v@w@x@&+G+y@",
"% z@u+u+A@B@C@y D@E@F@F@G@P.H@I@'+J@K@L@M@N@O@P@Q@R@S@T@U@V@W@X@Y@Z@`@ #.#&++#@#",
"& ##$#u+%#&#K x *#=#-#;#>#,#'#)#!#~#1@{#]#^#x@/#(#_#:#<#0.*+[#}#|#1#F+2#3#&+4#5#",
"6#7#8#J@9#0#a#,.b#c# @a  @x+x+L d#J A+[.[.,.,.e#-+M.x x x x x x x x C+f#r.&+g#h#",
"< i#j#J@k#l#m#x n#o#S x x x x x x x x x x x x x x x x x x x x x S x C+p#q#0.r#s#",
"& t#u#v#w#x#y#x z#A#d x x x x x x x x x x x x x x x x x x x x f  @0.B#C#D#E#F#& ",
"% % + G#H#I#J#x K#L#J+x x x x x x x f 0.M.M#N#O#P#Q#R#S#T#U#V#W#X#Y#Z#`# $.$+$< ",
"% % % % @$#$$$%$&$*$=$A+-$;$[.>$,$'$)$!$~${$]$^$/$$ $ $ $ & & % & % % % % % % ($",
"& % % % _$:$<$% % % [$[$. . 2 }$% $ k.E s |$$ k.k.% % % % % % % % % % % % % & $ ",
"                                                                                ",
"                                                                                ",
"                                                                                ",
"                                                                                ",
"                                                                                ",
"                                                                                ",
"                                                                                ",
"                                                                                "};
