/* XPM */
static char * donut_xpm[] = {
"40 40 475 2",
"  	c #309E99",
". 	c #309D98",
"+ 	c #2C564F",
"@ 	c #2E605C",
"# 	c #2F6963",
"$ 	c #2E5751",
"% 	c #2D4A42",
"& 	c #2D615C",
"* 	c #309A95",
"= 	c #2F8A85",
"- 	c #3D7874",
"; 	c #B46C92",
"> 	c #B76B90",
", 	c #B86C91",
"' 	c #B86B90",
") 	c #B76C90",
"! 	c #A76E8B",
"~ 	c #2E7D78",
"{ 	c #2E817B",
"] 	c #2F807B",
"^ 	c #2F9590",
"/ 	c #309C97",
"( 	c #339994",
"_ 	c #5D4E52",
": 	c #603E45",
"< 	c #6C4654",
"[ 	c #FC93CD",
"} 	c #FF91CC",
"| 	c #F993CF",
"1 	c #ED94D2",
"2 	c #FD92CC",
"3 	c #FF92CB",
"4 	c #EA88BB",
"5 	c #603E47",
"6 	c #613E46",
"7 	c #5F3E45",
"8 	c #5D4046",
"9 	c #2F9B96",
"0 	c #2A5049",
"a 	c #2A2312",
"b 	c #7C505F",
"c 	c #FF91CD",
"d 	c #FE91CD",
"e 	c #FF92CD",
"f 	c #D199DC",
"g 	c #00AEFC",
"h 	c #F396D1",
"i 	c #FE91D0",
"j 	c #FF92D0",
"k 	c #FE92CE",
"l 	c #FE92CD",
"m 	c #FC94CE",
"n 	c #231B00",
"o 	c #2E8C87",
"p 	c #2F9994",
"q 	c #2C817C",
"r 	c #D287AD",
"s 	c #DF81B2",
"t 	c #E485B6",
"u 	c #FE92CC",
"v 	c #FF91CE",
"w 	c #FD93CB",
"x 	c #D09ADB",
"y 	c #02ACFD",
"z 	c #F395D3",
"A 	c #FF92CC",
"B 	c #D65498",
"C 	c #8A5973",
"D 	c #2F8681",
"E 	c #2F9792",
"F 	c #5C8385",
"G 	c #A06081",
"H 	c #E198D8",
"I 	c #97A3EC",
"J 	c #F793D3",
"K 	c #FF90CF",
"L 	c #FC5AB2",
"M 	c #B76277",
"N 	c #667A65",
"O 	c #2E8A85",
"P 	c #2A6F6A",
"Q 	c #FF92CA",
"R 	c #FF92CF",
"S 	c #FF93CE",
"T 	c #FD93CC",
"U 	c #FB94CB",
"V 	c #FB94CA",
"W 	c #FC5BAE",
"X 	c #DE857C",
"Y 	c #AF864C",
"Z 	c #2D2511",
"` 	c #2B5953",
" .	c #DB83AF",
"..	c #FC92CE",
"+.	c #FF91CB",
"@.	c #FD9283",
"#.	c #FC9222",
"$.	c #FD9222",
"%.	c #FD90B6",
"&.	c #FF91CF",
"*.	c #FD70BB",
"=.	c #FC72BC",
"-.	c #FF92CE",
";.	c #FF93CD",
">.	c #AFD189",
",.	c #35F91E",
"'.	c #36F91E",
").	c #E2AAB3",
"!.	c #FC5BB1",
"~.	c #DE877D",
"{.	c #AD894D",
"].	c #309B96",
"^.	c #448481",
"/.	c #C877A2",
"(.	c #F08CC1",
"_.	c #FE92AF",
":.	c #FD939D",
"<.	c #FD939C",
"[.	c #FE90C3",
"}.	c #FE86C7",
"|.	c #FE75BE",
"1.	c #FE76BF",
"2.	c #C65991",
"3.	c #A84F7C",
"4.	c #AA6488",
"5.	c #FB92CC",
"6.	c #DFB0B3",
"7.	c #C5C59C",
"8.	c #C3C79A",
"9.	c #F29CC0",
"0.	c #FF91D0",
"a.	c #FC5BB2",
"b.	c #DC887E",
"c.	c #BE9255",
"d.	c #9C7B45",
"e.	c #436E64",
"f.	c #2F9A95",
"g.	c #613F48",
"h.	c #FE91CC",
"i.	c #E894D4",
"j.	c #EA96D1",
"k.	c #FF90CE",
"l.	c #FD8AC8",
"m.	c #F176B8",
"n.	c #E3569F",
"o.	c #D861A0",
"p.	c #6F7780",
"q.	c #2F736D",
"r.	c #2B5F59",
"s.	c #F791C8",
"t.	c #FE94CC",
"u.	c #FE93CD",
"v.	c #FE8ECD",
"w.	c #FE89CD",
"x.	c #FD5CB4",
"y.	c #DA897E",
"z.	c #C79A55",
"A.	c #C89954",
"B.	c #4F3F25",
"C.	c #309792",
"D.	c #2F948F",
"E.	c #60404A",
"F.	c #FD91CC",
"G.	c #83A4F1",
"H.	c #95A5ED",
"I.	c #FE92CB",
"J.	c #FE68B7",
"K.	c #C44C87",
"L.	c #2E3B32",
"M.	c #2D706B",
"N.	c #F890C6",
"O.	c #FF93CF",
"P.	c #FE80C4",
"Q.	c #FF5DB2",
"R.	c #FE5CB5",
"S.	c #DC887F",
"T.	c #C79A53",
"U.	c #C79A54",
"V.	c #503F24",
"W.	c #309994",
"X.	c #848791",
"Y.	c #EA88B9",
"Z.	c #84A5F2",
"`.	c #97A4EF",
" +	c #FD8BCA",
".+	c #FE69B9",
"++	c #96476D",
"@+	c #4E8282",
"#+	c #2F9C97",
"$+	c #F890C5",
"%+	c #FDC393",
"&+	c #FCD66D",
"*+	c #FD80C4",
"=+	c #FB61AD",
"-+	c #D28F6E",
";+	c #CC965F",
">+	c #2F918C",
",+	c #B76B92",
"'+	c #C29CE2",
")+	c #C99CE1",
"!+	c #FE86C8",
"~+	c #F277BA",
"{+	c #C54D88",
"]+	c #5D6A6E",
"^+	c #3C9995",
"/+	c #7C8A93",
"(+	c #FB91C8",
"_+	c #FECD8B",
":+	c #FEE256",
"<+	c #FD82C5",
"[+	c #FD72BD",
"}+	c #FA60AE",
"|+	c #CB9857",
"1+	c #C99A57",
"2+	c #2F9D98",
"3+	c #464B4A",
"4+	c #BB6B95",
"5+	c #FD75BE",
"6+	c #E457A1",
"7+	c #2F6762",
"8+	c #778088",
"9+	c #FDCA8F",
"0+	c #FDDE61",
"a+	c #FD6AB7",
"b+	c #FC5EB0",
"c+	c #F665A9",
"d+	c #C99955",
"e+	c #C99957",
"f+	c #C79A56",
"g+	c #309893",
"h+	c #2D5A54",
"i+	c #EA5AA7",
"j+	c #FD79C0",
"k+	c #DB60A0",
"l+	c #2F8C88",
"m+	c #2F8E8A",
"n+	c #985C78",
"o+	c #FD91CF",
"p+	c #FE90CC",
"q+	c #FE93CE",
"r+	c #FD69B9",
"s+	c #EA7794",
"t+	c #C99856",
"u+	c #C69B55",
"v+	c #C99857",
"w+	c #C89A55",
"x+	c #2F5A54",
"y+	c #EA59A8",
"z+	c #F29BC3",
"A+	c #94E174",
"B+	c #E5AAB8",
"C+	c #FE71B9",
"D+	c #C65990",
"E+	c #7C6A79",
"F+	c #2F8B86",
"G+	c #B07998",
"H+	c #E483BC",
"I+	c #FE92D0",
"J+	c #95A2ED",
"K+	c #D29ADB",
"L+	c #FC8CCA",
"M+	c #FC72BB",
"N+	c #FC61B2",
"O+	c #E97891",
"P+	c #C89A53",
"Q+	c #C89A54",
"R+	c #B68E4F",
"S+	c #796035",
"T+	c #3B837C",
"U+	c #EA58A6",
"V+	c #EDA0BE",
"W+	c #2BFE11",
"X+	c #DAB6AC",
"Y+	c #A84F7D",
"Z+	c #2F6D67",
"`+	c #379A97",
" @	c #68898D",
".@	c #92657A",
"+@	c #E384B9",
"@@	c #F094D4",
"#@	c #CF99DD",
"$@	c #8DA4EF",
"%@	c #D192D9",
"&@	c #FA7EC3",
"*@	c #FE5BB0",
"=@	c #F26EA2",
"-@	c #E08484",
";@	c #AE864D",
">@	c #2E2310",
",@	c #2F9893",
"'@	c #EA58A3",
")@	c #ED9FC1",
"!@	c #2CFD12",
"~@	c #DAB5AF",
"{@	c #AA648A",
"]@	c #2B5952",
"^@	c #2E8680",
"/@	c #2F8782",
"(@	c #907F92",
"_@	c #FA93CD",
":@	c #FF93D0",
"<@	c #00ACFC",
"[@	c #F195D1",
"}@	c #FD76C0",
"|@	c #FE5CB1",
"1@	c #FE5CAF",
"2@	c #D58E70",
"3@	c #AD864E",
"4@	c #2C2411",
"5@	c #EA58A4",
"6@	c #FD5EB2",
"7@	c #F969B2",
"8@	c #F39CC6",
"9@	c #FC94CD",
"0@	c #FB92CB",
"a@	c #EA93C3",
"b@	c #DB94BE",
"c@	c #ED94C5",
"d@	c #FB92CE",
"e@	c #F395D5",
"f@	c #FB63B3",
"g@	c #FC5EB1",
"h@	c #F767A6",
"i@	c #CC965D",
"j@	c #C89858",
"k@	c #84693B",
"l@	c #3B5D54",
"m@	c #2E5A54",
"n@	c #EA58A5",
"o@	c #FE5CB2",
"p@	c #FC64B4",
"q@	c #FE91CF",
"r@	c #FF93CC",
"s@	c #FDABB4",
"t@	c #FDADB2",
"u@	c #FE93CF",
"v@	c #FD94CE",
"w@	c #FD9395",
"x@	c #FE93AB",
"y@	c #FD80C3",
"z@	c #FA76BD",
"A@	c #FB76BC",
"B@	c #FB5EB1",
"C@	c #EF7199",
"D@	c #DB877E",
"E@	c #806538",
"F@	c #2D6B66",
"G@	c #D25897",
"H@	c #F159A9",
"I@	c #FE62B3",
"J@	c #FC89CA",
"K@	c #FD8ACD",
"L@	c #FAB0A9",
"M@	c #FDE355",
"N@	c #FBB9A1",
"O@	c #FE93CC",
"P@	c #FD916E",
"Q@	c #FD9284",
"R@	c #FE92B6",
"S@	c #FD8ACA",
"T@	c #FC6DBA",
"U@	c #FB60B0",
"V@	c #F669A3",
"W@	c #F669A5",
"X@	c #DD877D",
"Y@	c #B78C4E",
"Z@	c #786A4D",
"`@	c #2D716C",
" #	c #B7467E",
".#	c #FE5CB0",
"+#	c #FF5BB1",
"@#	c #FC72BA",
"##	c #FD939B",
"$#	c #FE912C",
"%#	c #FC5EAE",
"&#	c #FD5FAF",
"*#	c #EF729C",
"=#	c #CA9A57",
"-#	c #C89B56",
";#	c #C69A55",
">#	c #C69A5A",
",#	c #2A1D0C",
"'#	c #2E827D",
")#	c #2F817B",
"!#	c #FD5CB2",
"~#	c #FC5DB1",
"{#	c #FB62B2",
"]#	c #FC68B6",
"^#	c #FD68B6",
"/#	c #FE69AB",
"(#	c #FB6C9B",
"_#	c #D78E70",
":#	c #D68F6F",
"<#	c #D09369",
"[#	c #C89B55",
"}#	c #C79B55",
"|#	c #A7834A",
"1#	c #655031",
"2#	c #2F908B",
"3#	c #389E99",
"4#	c #9D919B",
"5#	c #CD4F8F",
"6#	c #FA62AC",
"7#	c #E97992",
"8#	c #E67B8F",
"9#	c #7F7656",
"0#	c #2F7F7A",
"a#	c #49A19C",
"b#	c #487D7B",
"c#	c #F760B1",
"d#	c #FA5FAD",
"e#	c #FB5FAE",
"f#	c #F16DA0",
"g#	c #C89955",
"h#	c #C79956",
"i#	c #C69B54",
"j#	c #C59A55",
"k#	c #C49A58",
"l#	c #C49A55",
"m#	c #665032",
"n#	c #2E7B76",
"o#	c #4AA39E",
"p#	c #295751",
"q#	c #B2854E",
"r#	c #C89958",
"s#	c #CA9757",
"t#	c #CA9858",
"u#	c #C79958",
"v#	c #C69958",
"w#	c #C89956",
"x#	c #8A6A38",
"y#	c #2A1C10",
"z#	c #2B1C0E",
"A#	c #2E908B",
"B#	c #4DA29E",
"C#	c #899183",
"D#	c #80653C",
"E#	c #816539",
"F#	c #82643C",
"G#	c #B0864D",
"H#	c #C99956",
"I#	c #C89A56",
"J#	c #9F7746",
"K#	c #80643B",
"L#	c #83633C",
"M#	c #5C7766",
"N#	c #2F827D",
"O#	c #2F8F8A",
"P#	c #319E99",
"Q#	c #5F9995",
"R#	c #2E5B54",
"S#	c #686045",
"T#	c #9B8051",
"U#	c #A17B45",
"V#	c #A27B47",
"W#	c #947241",
"X#	c #AD874B",
"Y#	c #A17D46",
"Z#	c #6C6B55",
"`#	c #2E635D",
" $	c #2F938E",
".$	c #2E534D",
"+$	c #2E4842",
"@$	c #2E544D",
"#$	c #2E4741",
"$$	c #2E443C",
"%$	c #2E4B44",
"&$	c #2D3227",
"*$	c #2D4D46",
"=$	c #2F8580",
"-$	c #30938E",
";$	c #309590",
">$	c #2F847F",
",$	c #2F8C86",
"'$	c #339E99",
"                                                                                ",
"                                                                                ",
"                                                                                ",
"                                                                                ",
"                                  . + @ # @ $ % &                               ",
"                            . * = - ; > , , ' ) ! ~ { ] ^                       ",
"                      . / ( _ : : < [ } | 1 2 3 4 5 6 7 8 9                     ",
"                      0 a b 3 c d 2 } e f g h } i j k l m n o                   ",
"                  p q r s t u c c v c w x y z c c A A 3 3 B C D                 ",
"                E F G 2 c c c c c c c l H I J c c c c c K L M N O               ",
"                P G } c 3 Q Q } c c c v R S } T U V u c c W X Y Z .             ",
"            . `  ...+.c @.#.$.%.c v &.*.=.-.;.>.,.'.).c &.!.~.{.Z ].            ",
"            ^./.(.k l c _.:.<.[.}.|.1.2.3.4.5.6.7.8.9.c 0.a.b.c.d.e.f.          ",
"          / g.h.i.j.c c } k.l l.m.n.o.p.q.r.s.&.;.t.u.v.w.x.y.z.A.B.C.          ",
"          D.E.F.G.H.-.c l l I.J.K.L.M./ . = N.e l S O.P.Q.R.S.T.U.V.W.          ",
"          X.Y.-.Z.`.e -.S  +.+++@+#+      = $+%+&+O.S *+=+-+;+U.z.V.W.          ",
"        >+,+c -.'+)+O.S !+~+{+]+E       ^+/+(+_+:+S <+[+}+|+1+z.z.V.W.          ",
"      2+3+4+c -.R -.R R 5+6+7+#+      . 8+S } 9+0+j a+b+c+d+e+f+z.V.g+          ",
"    . h+i+j+c R e l c O.5+k+l+        m+n+S k o+p+q+r+s+t+u+v+w+z.V.W.          ",
"      x+y+j+z+A+B+l l C+D+E+].    . F+G+H+I+J+K+L+M+N+O+A.P+Q+R+S+T+/           ",
"    . x+U+j+V+W+X+c v M+Y+Z+].. `+ @.@+@@@#@$@%@&@*@=@-@z.u+z.;@>@,@            ",
"    . x+'@j+)@!@~@c c c {@]@^@/@(@_@R :@f <@[@}@|@1@2@z.u+z.z.3@4@].            ",
"      x+5@6@7@8@9@S S S 0@a@b@b@c@;.S S d@e@f@g@h@i@j@z.z.z.k@l@/               ",
"      m@n@o@p@q@r@s@_+_+t@u@v@w@x@:@R y@z@A@B@C@D@Q+U.z.z.z.E@h+                ",
"      F@G@H@I@J@K@L@M@M@N@d O@P@Q@R@S@T@U@V@W@X@f+A.Q+z.f+Y@Z@`@                ",
"        $  #|@.#+#@#O.O.u@l e j ##$#%#&#*#=#-#;#U.z.w+z.>#,#'#                  ",
"        )# #o@!#~#{#]#]#]#^#^#^#/#(#_#:#<#[#}#[#z.z.z.|#1#2#.                   ",
"        3#4#5#!#!#o@o@o@o@6#7#7#7#8#U.z.u+u+z.z.z.U.|#9#0#                      ",
"          a#b#c#d#e#e#e#}+f#g#U.U.h#i#z.z.z.z.j#k#l#m#n#                        ",
"            o#p#q#r#s#t#u#v#z.z.z.z.z.w#u+u+z.x#y#z#A#                          ",
"              B#C#D#E#F#G#f+d+H#I#z.f+J#K#L#L#M#N#O#.                           ",
"              P#Q#m@m@R#S#T#U#V#W#X#Y#Z#`#`#`# $                                ",
"                      .$+$@$#$$$%$%$&$*$                                        ",
"                      C.  =$-$;$. >$].,$            2+2+                        ",
"                                                          '$                    ",
"                                                                                ",
"                                                                                ",
"                                                                2+              ",
"                                                                                ",
"                                                                                "};
