/* XPM */
static char * flanders_xpm[] = {
"40 40 658 2",
"  	c None",
". 	c #319E99",
"+ 	c #329E99",
"@ 	c #309E99",
"# 	c #339E99",
"$ 	c #349F9A",
"% 	c #369F9A",
"& 	c #3EA19C",
"* 	c #59A7A3",
"= 	c #8ABAB6",
"- 	c #87B5B1",
"; 	c #7CADA9",
"> 	c #74A7A3",
", 	c #79A6A0",
"' 	c #60A29D",
") 	c #57A19C",
"! 	c #5CA49E",
"~ 	c #68A8A3",
"{ 	c #B3CECB",
"] 	c #63ABA7",
"^ 	c #3CA09B",
"/ 	c #41A19D",
"( 	c #52A5A1",
"_ 	c #8BB9B6",
": 	c #9FA9A4",
"< 	c #717262",
"[ 	c #7B4501",
"} 	c #734209",
"| 	c #804405",
"1 	c #854601",
"2 	c #7E4307",
"3 	c #733D0A",
"4 	c #7F4704",
"5 	c #7F4806",
"6 	c #7E4405",
"7 	c #866A59",
"8 	c #BDB9B4",
"9 	c #82B6B2",
"0 	c #71B0AC",
"a 	c #379F9A",
"b 	c #7CB2AE",
"c 	c #5E8A81",
"d 	c #6E3E0B",
"e 	c #824502",
"f 	c #7F4601",
"g 	c #6F3E09",
"h 	c #844705",
"i 	c #854501",
"j 	c #6F3D07",
"k 	c #824704",
"l 	c #824602",
"m 	c #814700",
"n 	c #794305",
"o 	c #6E3F0A",
"p 	c #7C450A",
"q 	c #836353",
"r 	c #C1CDC8",
"s 	c #66ACA8",
"t 	c #53A6A2",
"u 	c #3DA09C",
"v 	c #3BA09B",
"w 	c #3AA09B",
"x 	c #53A5A2",
"y 	c #8CA29B",
"z 	c #854505",
"A 	c #713C05",
"B 	c #824802",
"C 	c #804704",
"D 	c #804904",
"E 	c #864701",
"F 	c #6F3F09",
"G 	c #814804",
"H 	c #864605",
"I 	c #834606",
"J 	c #6E3D09",
"K 	c #834702",
"L 	c #834602",
"M 	c #804702",
"N 	c #7C5128",
"O 	c #AAC3BF",
"P 	c #6CAEAA",
"Q 	c #3A9F9B",
"R 	c #57A7A2",
"S 	c #705645",
"T 	c #814604",
"U 	c #774106",
"V 	c #7B4409",
"W 	c #804508",
"X 	c #876319",
"Y 	c #A58612",
"Z 	c #B39118",
"` 	c #AB8E13",
" .	c #9D7D19",
"..	c #7C4E09",
"+.	c #7A4508",
"@.	c #734104",
"#.	c #824700",
"$.	c #834601",
"%.	c #7D7E72",
"&.	c #81B5B3",
"*.	c #43A29D",
"=.	c #3EA09C",
"-.	c #329F9A",
";.	c #6EAFAB",
">.	c #6A7267",
",.	c #7E4304",
"'.	c #824504",
").	c #826110",
"!.	c #DDBC1A",
"~.	c #FAD915",
"{.	c #FAD80D",
"].	c #FCD80F",
"^.	c #FCD80D",
"/.	c #FDD711",
"(.	c #FAD41A",
"_.	c #CDB322",
":.	c #815908",
"<.	c #834804",
"[.	c #854703",
"}.	c #854701",
"|.	c #834802",
"1.	c #824608",
"2.	c #B5BFB5",
"3.	c #68ADA8",
"4.	c #39A09B",
"5.	c #59A8A3",
"6.	c #66A39D",
"7.	c #743F0E",
"8.	c #734411",
"9.	c #E7C71D",
"0.	c #FCD80C",
"a.	c #FDD80C",
"b.	c #FDD70E",
"c.	c #FDD70F",
"d.	c #FDD80E",
"e.	c #EACA1C",
"f.	c #84590B",
"g.	c #844702",
"h.	c #854801",
"i.	c #854800",
"j.	c #844700",
"k.	c #888B7F",
"l.	c #53A6A1",
"m.	c #359F9A",
"n.	c #38A09B",
"o.	c #80B6B2",
"p.	c #719590",
"q.	c #AC8C19",
"r.	c #FDD70D",
"s.	c #FDD80D",
"t.	c #FED90F",
"u.	c #FCD70F",
"v.	c #D0AE19",
"w.	c #7D4702",
"x.	c #804800",
"y.	c #834800",
"z.	c #844800",
"A.	c #784620",
"B.	c #7BB3AF",
"C.	c #5FAAA6",
"D.	c #3CA19C",
"E.	c #52A6A1",
"F.	c #67ACA8",
"G.	c #AFCECA",
"H.	c #D4BE4D",
"I.	c #FCD710",
"J.	c #FED80E",
"K.	c #F7D41D",
"L.	c #7C4B08",
"M.	c #814701",
"N.	c #824801",
"O.	c #824800",
"P.	c #7C4600",
"Q.	c #ABC5C2",
"R.	c #3FA19C",
"S.	c #84B8B5",
"T.	c #CCD1BE",
"U.	c #EFD120",
"V.	c #FCD80E",
"W.	c #FED911",
"X.	c #FDD912",
"Y.	c #987416",
"Z.	c #834801",
"`.	c #824900",
" +	c #824806",
".+	c #B4C4C1",
"++	c #58A7A3",
"@+	c #C2D7D5",
"#+	c #CAB84F",
"$+	c #DBC461",
"%+	c #DDC66A",
"&+	c #E9C81D",
"*+	c #FCD910",
"=+	c #F7D315",
"-+	c #DDC158",
";+	c #DFC47B",
">+	c #DDC348",
",+	c #FAD617",
"'+	c #FED712",
")+	c #FDD810",
"!+	c #A58522",
"~+	c #844801",
"{+	c #844808",
"]+	c #B0BEBB",
"^+	c #97C0BE",
"/+	c #E4E4E4",
"(+	c #E4E3DF",
"_+	c #FDFDFB",
":+	c #FEFEFD",
"<+	c #EEEEE8",
"[+	c #DBC471",
"}+	c #EACF29",
"|+	c #DDD9C5",
"1+	c #FDFDF9",
"2+	c #FEFEFE",
"3+	c #FBFBF8",
"4+	c #D6CDAD",
"5+	c #F4D318",
"6+	c #FED811",
"7+	c #A88222",
"8+	c #824701",
"9+	c #844708",
"0+	c #AFBDBA",
"a+	c #D5E2E1",
"b+	c #E2E2E2",
"c+	c #FFFFFF",
"d+	c #F2EFEB",
"e+	c #CAC6B1",
"f+	c #FAFEFE",
"g+	c #FFFFFE",
"h+	c #FCFEFB",
"i+	c #D4CC86",
"j+	c #FDDA0E",
"k+	c #A37D20",
"l+	c #7F4901",
"m+	c #834707",
"n+	c #6BADAA",
"o+	c #C3D2D0",
"p+	c #FAF9FA",
"q+	c #FDFDFD",
"r+	c #D9D9D9",
"s+	c #FBFBFB",
"t+	c #E1E1E1",
"u+	c #FFFEFF",
"v+	c #F0F0EF",
"w+	c #F1F1EF",
"x+	c #FFFFFD",
"y+	c #DBD7BD",
"z+	c #FCD91E",
"A+	c #9D791C",
"B+	c #824703",
"C+	c #784105",
"D+	c #834603",
"E+	c #B7C0BE",
"F+	c #69ADA9",
"G+	c #CAD8D6",
"H+	c #F1F1F1",
"I+	c #F0F0F0",
"J+	c #FCFCF6",
"K+	c #F0EFED",
"L+	c #E6E6E4",
"M+	c #D7D7D5",
"N+	c #F2F3F2",
"O+	c #F4F4F2",
"P+	c #D5CAAA",
"Q+	c #DABA20",
"R+	c #7F6117",
"S+	c #723E0D",
"T+	c #775515",
"U+	c #8F6819",
"V+	c #814607",
"W+	c #B9C3BE",
"X+	c #60AAA6",
"Y+	c #D0E1DF",
"Z+	c #D7D7D7",
"`+	c #E8E5DC",
" @	c #DBC243",
".@	c #E8CA14",
"+@	c #EBD015",
"@@	c #D8C267",
"#@	c #F5F5F0",
"$@	c #FDFFFF",
"%@	c #FEFFFD",
"&@	c #EEECE6",
"*@	c #E2C93E",
"=@	c #FED710",
"-@	c #8C640C",
";@	c #7F490A",
">@	c #CCB21E",
",@	c #F8D81C",
"'@	c #987914",
")@	c #BCC6C4",
"!@	c #48A39E",
"~@	c #73B1AD",
"{@	c #C9DCDB",
"]@	c #CBC7B3",
"^@	c #C6B888",
"/@	c #FDDA18",
"(@	c #FED90E",
"_@	c #FCD810",
":@	c #FDD915",
"<@	c #DEC75A",
"[@	c #DCD6B9",
"}@	c #DFDBCA",
"|@	c #DED2AB",
"1@	c #E5C941",
"2@	c #FCD50D",
"3@	c #FCD610",
"4@	c #865D0A",
"5@	c #82440B",
"6@	c #BA9E22",
"7@	c #EECC17",
"8@	c #B99E21",
"9@	c #C4CFCD",
"0@	c #44A29D",
"a@	c #7EB6B2",
"b@	c #D3CB95",
"c@	c #DCBE27",
"d@	c #B6941A",
"e@	c #D4B51B",
"f@	c #DABE12",
"g@	c #D8BB10",
"h@	c #D9BA12",
"i@	c #F5D31E",
"j@	c #FCD81B",
"k@	c #FAD713",
"l@	c #7E4F0A",
"m@	c #79440A",
"n@	c #E3C515",
"o@	c #FBDA10",
"p@	c #AE8F12",
"q@	c #B6CCC8",
"r@	c #40A19C",
"s@	c #83B8B4",
"t@	c #8EBCB9",
"u@	c #BFB4A2",
"v@	c #6F450B",
"w@	c #6E3F10",
"x@	c #7B420C",
"y@	c #7E4703",
"z@	c #7F4605",
"A@	c #7C4509",
"B@	c #7B520D",
"C@	c #C4A51C",
"D@	c #F8D617",
"E@	c #FDD811",
"F@	c #FBD90F",
"G@	c #FCD813",
"H@	c #C29E17",
"I@	c #C2A917",
"J@	c #FAD416",
"K@	c #F1D31C",
"L@	c #7D5818",
"M@	c #A8C7C5",
"N@	c #8CBCB8",
"O@	c #C9C4C1",
"P@	c #6A3A09",
"Q@	c #6A3D0A",
"R@	c #693E0A",
"S@	c #824707",
"T@	c #824803",
"U@	c #794107",
"V@	c #703F0B",
"W@	c #703D0F",
"X@	c #957211",
"Y@	c #F1CE19",
"Z@	c #FED812",
"`@	c #FDDA0B",
" #	c #F1CD18",
".#	c #C9AA17",
"+#	c #966E15",
"@#	c #8B705B",
"##	c #92BEBA",
"$#	c #83B7B3",
"%#	c #775331",
"&#	c #783F0A",
"*#	c #7D4504",
"=#	c #844802",
"-#	c #844701",
";#	c #844601",
">#	c #7A4009",
",#	c #774103",
"'#	c #966F17",
")#	c #DCC21D",
"!#	c #D3B518",
"~#	c #FBD80E",
"{#	c #D4B61B",
"]#	c #7F4600",
"^#	c #93A59C",
"/#	c #3DA19C",
"(#	c #7FB5B2",
"_#	c #AFA198",
":#	c #8D7666",
"<#	c #968073",
"[#	c #967F71",
"}#	c #9D7D1C",
"|#	c #977913",
"1#	c #8B6514",
"2#	c #7A4705",
"3#	c #7A4305",
"4#	c #804903",
"5#	c #7D4B03",
"6#	c #7A470A",
"7#	c #EFD21C",
"8#	c #F9D614",
"9#	c #CDAC16",
"0#	c #804602",
"a#	c #784400",
"b#	c #80B2AF",
"c#	c #46A29D",
"d#	c #319F9A",
"e#	c #7EB5B1",
"f#	c #A7CAC7",
"g#	c #A9CAC8",
"h#	c #B0CDCB",
"i#	c #A8C4C0",
"j#	c #EBCC2D",
"k#	c #FAD811",
"l#	c #F8DA12",
"m#	c #F3D517",
"n#	c #E3C215",
"o#	c #D2B018",
"p#	c #CDAE17",
"q#	c #E7C81B",
"r#	c #FAD710",
"s#	c #C3A10D",
"t#	c #804608",
"u#	c #A2A39B",
"v#	c #48A39F",
"w#	c #369F9B",
"x#	c #79B3AF",
"y#	c #E6E3D8",
"z#	c #E0CA5C",
"A#	c #FDD809",
"B#	c #FED60E",
"C#	c #C9B169",
"D#	c #C9C8C6",
"E#	c #8CBBB7",
"F#	c #5CA9A4",
"G#	c #36A09B",
"H#	c #87B9B4",
"I#	c #DBD1AA",
"J#	c #DACCA1",
"K#	c #CDDDDC",
"L#	c #5EA9A5",
"M#	c #45A29D",
"N#	c #86B8B4",
"O#	c #D2CEB8",
"P#	c #FCD814",
"Q#	c #FBD90E",
"R#	c #FBD80A",
"S#	c #DDD0A9",
"T#	c #ADCDC9",
"U#	c #4FA5A0",
"V#	c #A6C8C6",
"W#	c #D2CFBE",
"X#	c #FBD915",
"Y#	c #FBD80F",
"Z#	c #FED70E",
"`#	c #FAD715",
" $	c #C28650",
".$	c #CCD5D3",
"+$	c #62ABA7",
"@$	c #339F9A",
"#$	c #95BFBA",
"$$	c #C88F73",
"%$	c #DABC26",
"&$	c #FBD81A",
"*$	c #FED70F",
"=$	c #FED80F",
"-$	c #FDD90E",
";$	c #FCD912",
">$	c #E4C41E",
",$	c #D9964A",
"'$	c #FA8D64",
")$	c #DAB5AC",
"!$	c #96C0BE",
"~$	c #47A29E",
"{$	c #63ABA6",
"]$	c #CABFB7",
"^$	c #F98E67",
"/$	c #F18962",
"($	c #D99249",
"_$	c #D3A639",
":$	c #D3AC29",
"<$	c #D1A92E",
"[$	c #D7A542",
"}$	c #D78E4D",
"|$	c #EC8C62",
"1$	c #FD8E64",
"2$	c #FE8E63",
"3$	c #DB8F74",
"4$	c #C5D9D9",
"5$	c #68ADA9",
"6$	c #5AA8A4",
"7$	c #B2CDCA",
"8$	c #A88E78",
"9$	c #FC8B67",
"0$	c #FD8F67",
"a$	c #FD8B63",
"b$	c #D37A58",
"c$	c #FA9266",
"d$	c #D47D5B",
"e$	c #FA8C62",
"f$	c #FD8D63",
"g$	c #FE8F65",
"h$	c #FF8F65",
"i$	c #FF8D65",
"j$	c #D9815C",
"k$	c #CED2CA",
"l$	c #B1D0CC",
"m$	c #50A6A1",
"n$	c #3BA19C",
"o$	c #72B0AC",
"p$	c #73ADA6",
"q$	c #395D29",
"r$	c #426412",
"s$	c #EF8764",
"t$	c #FE8C67",
"u$	c #DD805F",
"v$	c #F48B60",
"w$	c #FD8F66",
"x$	c #F28863",
"y$	c #E4845F",
"z$	c #FD9166",
"A$	c #FF8F67",
"B$	c #FF8F66",
"C$	c #EF8A64",
"D$	c #69682B",
"E$	c #296F03",
"F$	c #B6C1B5",
"G$	c #9CC1BC",
"H$	c #99C2BF",
"I$	c #46A39E",
"J$	c #9AC2BF",
"K$	c #B1C7C1",
"L$	c #2F7F5D",
"M$	c #286509",
"N$	c #257502",
"O$	c #A17042",
"P$	c #F38E65",
"Q$	c #936741",
"R$	c #E08961",
"S$	c #F89264",
"T$	c #EE8968",
"U$	c #AA6F4E",
"V$	c #FA9167",
"W$	c #E5855D",
"X$	c #67682B",
"Y$	c #2A7304",
"Z$	c #266C08",
"`$	c #2A670B",
" %	c #326C23",
".%	c #BFCAC2",
"+%	c #8BBCB8",
"@%	c #42A29D",
"#%	c #329E9A",
"$%	c #59A8A4",
"%%	c #72B0AB",
"&%	c #4E7641",
"*%	c #25650E",
"=%	c #2A7305",
"-%	c #277500",
";%	c #2F6D05",
">%	c #83693A",
",%	c #27660D",
"'%	c #2B670F",
")%	c #32580A",
"!%	c #2E5B0B",
"~%	c #2D6B08",
"{%	c #D3835D",
"]%	c #B2794B",
"^%	c #3D6811",
"/%	c #297301",
"(%	c #297303",
"_%	c #26640A",
":%	c #2C7501",
"<%	c #2B7402",
"[%	c #336F1C",
"}%	c #94BDB6",
"|%	c #37A09B",
"1%	c #8BA395",
"2%	c #2D7105",
"3%	c #236608",
"4%	c #2A7401",
"5%	c #297400",
"6%	c #2A7400",
"7%	c #2A7301",
"8%	c #297203",
"9%	c #297201",
"0%	c #2A7303",
"a%	c #2B7306",
"b%	c #2F690E",
"c%	c #2A7205",
"d%	c #2B7200",
"e%	c #287400",
"f%	c #287401",
"g%	c #276306",
"h%	c #2A7501",
"i%	c #2B7501",
"j%	c #2D7401",
"k%	c #69927A",
"l%	c #7DB5B1",
"m%	c #4BA39F",
"n%	c #95BBB5",
"o%	c #2A7108",
"p%	c #2A6905",
"q%	c #276F06",
"r%	c #297401",
"s%	c #287304",
"t%	c #25660A",
"u%	c #2B7502",
"v%	c #2C7E50",
"w%	c #9FBFB9",
"x%	c #61AAA6",
"y%	c #659380",
"z%	c #277402",
"A%	c #276309",
"B%	c #287402",
"C%	c #266908",
"D%	c #6D8C68",
"E%	c #60A9A5",
"F%	c #C1CCC2",
"G%	c #2B7207",
"H%	c #2B7303",
"I%	c #25660B",
"J%	c #277404",
"K%	c #2B7400",
"L%	c #2A6E03",
"M%	c #276B08",
"N%	c #297007",
"O%	c #B1C7C3",
"P%	c #47A39E",
"Q%	c #70AFAB",
"R%	c #66835F",
"S%	c #287200",
"T%	c #286F05",
"U%	c #256905",
"V%	c #286B06",
"W%	c #296E06",
"X%	c #2A7302",
"Y%	c #96A58F",
"Z%	c #B8C8C3",
"`%	c #257102",
" &	c #287300",
".&	c #266505",
"+&	c #297204",
"@&	c #276806",
"#&	c #2A7106",
"$&	c #387746",
"%&	c #50A5A0",
"&&	c #6DAFAB",
"*&	c #7D9881",
"=&	c #28630B",
"-&	c #266704",
";&	c #2A7206",
">&	c #2B7503",
",&	c #85B1AB",
". . . + . @ # @ $ % & * = - ; > , ' ) ! ~ - { ] @ @ @ @ @ @ @ @ @ @ @ @ @ @ ^ / ",
". @ @ + % @ @ @ @ ( _ : < [ } | 1 2 3 4 5 6 7 8 9 0 a @ @ @ @ @ @ @ @ @ @ @ . @ ",
"@ @ @ . $ @ @ @ a b c d e f g h i j k l m n o p q r s t u v w @ @ @ @ @ @ @ @ @ ",
"@ @ @ @ % @ @ @ x y z A B C 3 D E F G H I J K L M N O P & ^ Q @ @ @ @ @ @ @ @ @ ",
"@ @ @ . a . @ @ R S T U V W X Y Z `  ...+.@.#.$.#.k %.&.*.& =.@ @ @ @ @ @ @ @ @ ",
"@ @ @ @ @ @ @ -.;.>.,.'.).!.~.{.].^./.(._.:.<.[.}.|.1.2.3.& 4.@ @ @ @ @ @ @ @ @ ",
"@ @ @ @ @ @ @ $ 5.6.7.8.9.0.a.b.c.b.b.b.d.e.f.g.h.i.j.k.0 l.m.@ @ @ @ @ @ @ @ @ ",
"@ @ @ @ @ @ . n.l.o.p.q.0.r.b.c.s.b.b.b.t.u.v.w.x.y.z.A.B.C.n.@ @ @ @ @ @ @ @ @ ",
"@ @ @ @ @ @ . D.E.F.G.H.I.b.b.b.s.b.b.d.t.J.K.L.M.N.O.P.Q.s n.@ @ @ @ @ @ @ @ @ ",
"@ @ @ @ @ @ @ + R.S.T.U.].c.b.V.V.V.V.V.t.W.X.Y.L Z.`. +.+++m.@ @ @ @ @ @ @ @ @ ",
"@ @ @ @ @ @ @ + s @+#+$+%+&+*+J.=+-+;+>+,+'+)+!+K ~+Z.{+]+* $ @ @ @ @ @ @ @ @ @ ",
"@ @ @ @ @ @ @ . ^+/+(+_+:+<+[+}+|+1+2+3+4+5+6+7+N.N.8+9+0+* $ @ @ @ @ @ @ @ @ @ ",
"@ @ @ @ @ @ @ v a+b+c+c+c+c+d+e+f+g+c+g+h+i+j+k+l+x.8+m+0+n+m.@ @ @ @ @ @ @ @ @ ",
"@ @ @ @ @ @ @ v o+p+q+r+c+c+s+t+c+u+v+w+x+y+z+A+B+C+D+h E+F++ @ @ @ @ @ @ @ @ . ",
"@ @ @ @ @ . @ v G+H+c+I+J+K+L+M+c+c+N+O+x+P+Q+R+S+T+U+V+W+X+. @ @ @ @ @ @ @ @ % ",
"@ @ @ @ @ @ @ v Y+Z+_+`+ @.@+@@@#@$@%@$@&@*@=@-@;@>@,@'@)@!@. @ @ @ @ @ @ @ @ m.",
". @ @ @ @ @ @ & ~@{@]@^@/@(@_@:@<@[@}@|@1@2@3@4@5@6@7@8@9@0@@ @ @ @ @ @ @ @ @ + ",
"@ @ @ @ @ @ @ v ;.a@b@c@d@e@f@g@h@i@j@/.].^.k@l@m@n@o@p@q@r@@ @ @ @ @ @ @ @ @ @ ",
". @ @ @ @ @ . u s@t@u@v@w@x@y@z@A@B@C@D@E@F@G@H@I@J@K@L@M@w @ @ @ @ @ @ @ @ @ @ ",
". @ @ @ @ @ . w N@O@P@Q@R@S@T@g.U@V@W@X@Y@Z@E@`@ #.#+#@###n.@ @ @ @ @ @ @ @ @ @ ",
". @ @ @ @ @ @ . $#%#&#*#z@}.=#-#;#>#,#4 '#)#!#~#{#z@]#^#~@% @ @ @ @ @ @ @ @ @ @ ",
". @ @ @ @ @ . /#(#_#:#<#[#}#|#1#2#3#4#5#6#7#8#].9#0#a#b#c#d#@ @ @ @ @ @ @ @ @ @ ",
". @ @ @ @ @ @ a e#f#g#h#i#j#k#l#m#n#o#p#q#r#V.].s#t#u#] v#w#@ @ @ @ @ @ @ @ @ @ ",
". @ @ @ @ @ @ . @ & & 0@x#y#z#A#B#b.b.b.b.b.V.].C#D#E#F#G#@ @ @ @ @ @ @ @ @ @ @ ",
"@ @ @ @ @ @ @ @ @ d#. *.% H#I#s.V.b.b.b.b.b.b.].J#K#L#v + @ @ @ @ @ @ @ @ @ @ @ ",
"@ @ @ @ @ @ @ @ @ @ # $ M#N#O#P#Q#V.b.b.b.b.s.R#S#T#U#!@w @ @ @ @ @ @ @ @ @ @ @ ",
"@ @ @ @ @ @ @ @ @ @ m.m.w V#W#X#Y#d.b.b.b.Z#b.`# $.$+$*.m.@ @ @ @ @ @ @ @ @ @ @ ",
"@ @ @ @ @ @ @ $ @ + @$a w #$$$%$&$*$=$t.-$;$>$,$'$)$!$~$@$@ @ @ @ @ @ @ @ @ @ @ ",
"@ @ @ @ @ @ $ @ @ m.@ *.{$]$^$/$($_$:$<$[$}$|$1$2$3$4$5$v @ @ @ @ @ @ @ @ @ @ @ ",
"@ @ @ @ @ @ . @ @ -.4.6$7$8$9$0$a$b$c$d$e$f$g$h$i$j$k$l$m$@ @ @ @ @ @ @ @ @ @ @ ",
"+ @ @ @ @ @ @ -.-.n$o$p$q$r$s$t$u$v$w$x$y$z$A$B$C$D$E$F$G$H$I$@ @ @ @ @ @ @ @ @ ",
". @ @ @ @ @ @ . v J$K$L$M$N$O$P$Q$R$S$T$U$V$0$W$X$Y$Z$`$ %.%+%@%@ @ @ @ @ @ @ @ ",
"@ @ @ @ @ @ @ #%$%%%&%*%=%-%;%>%,%'%)%!%~%{%]%^%/%(%_%:%<%[%}%|%@ @ @ @ @ @ @ @ ",
"@ @ @ @ @ @ @ -.] 1%2%3%4%5%6%6%7%8%9%0%a%b%c%d%e%f%g%h%i%j%k%l%@ @ @ @ @ @ @ @ ",
"@ @ @ @ @ @ @ m%n%o%p%q%e%e%6%6%6%6%6%6%6%r%6%6%5%s%t%h%i%u%v%w%+$@ @ @ @ @ @ @ ",
"@ @ @ @ @ @ . x%y%z%A%B%5%5%6%6%6%6%6%6%6%6%6%6%6%c%C%i%i%:%:%D%E%. @ @ @ @ @ @ ",
"@ @ @ @ @ @ v F%G%H%I%J%6%K%6%6%6%6%6%6%6%6%6%6%6%L%M%i%i%i%i%N%O%P%@ @ @ @ @ @ ",
"@ @ @ @ @ @ Q%R%S%T%U%5%6%6%6%6%6%6%6%6%6%6%6%6%6%V%W%i%6%6%6%X%Y%3.@ @ @ @ @ @ ",
"@ @ @ @ @ r@Z%`% &.&+&r%6%6%6%6%6%6%6%6%6%6%6%6%6%@&#&i%6%6%6%4%$&%&@ @ @ @ @ @ ",
"@ @ @ @ -.&&*&h%6%=&h%h%i%i%i%i%i%i%i%i%i%i%i%i%i%-&;&i%i%i%i%i%>&,&m.@ @ @ @ @ "};
