/* XPM */
static char * homer_flip_xpm[] = {
"40 40 567 2",
"  	c None",
". 	c #3DA09C",
"+ 	c #309E99",
"@ 	c #319E9A",
"# 	c #319E99",
"$ 	c #329E99",
"% 	c #349E99",
"& 	c #359F9A",
"* 	c #389F9A",
"= 	c #349F9A",
"- 	c #47A29E",
"; 	c #339E99",
"> 	c #40A19C",
", 	c #369F9A",
"' 	c #379F9A",
") 	c #339F9A",
"! 	c #329F9A",
"~ 	c #339E9A",
"{ 	c #329E9A",
"] 	c #49A39E",
"^ 	c #AFCBC9",
"/ 	c #2D2D2D",
"( 	c #1C1C1C",
"_ 	c #000000",
": 	c #104542",
"< 	c #53A09C",
"[ 	c #3BA09B",
"} 	c #3CA09B",
"| 	c #67ACA7",
"1 	c #51A5A1",
"2 	c #9BC2BF",
"3 	c #D9DFDF",
"4 	c #030303",
"5 	c #EEEEEE",
"6 	c #F6F6F6",
"7 	c #7D7D7D",
"8 	c #010101",
"9 	c #052322",
"0 	c #719B99",
"a 	c #6FAFAB",
"b 	c #39A09B",
"c 	c #3EA19C",
"d 	c #57A7A2",
"e 	c #99B2B0",
"f 	c #363636",
"g 	c #363637",
"h 	c #343436",
"i 	c #030304",
"j 	c #39393B",
"k 	c #3C3B3F",
"l 	c #CAC9CA",
"m 	c #EDEDED",
"n 	c #A8A8A8",
"o 	c #1E1E1E",
"p 	c #529A96",
"q 	c #66ABA8",
"r 	c #95BDBB",
"s 	c #9A999A",
"t 	c #737374",
"u 	c #727272",
"v 	c #A6A35C",
"w 	c #E0D913",
"x 	c #E2D811",
"y 	c #E2D812",
"z 	c #E2D910",
"A 	c #DDDB15",
"B 	c #959065",
"C 	c #797979",
"D 	c #525252",
"E 	c #8A8A8A",
"F 	c #B5C2C1",
"G 	c #459A96",
"H 	c #59A7A3",
"I 	c #86B8B5",
"J 	c #8A8F8F",
"K 	c #BEBB41",
"L 	c #CDC612",
"M 	c #CFC512",
"N 	c #E2D911",
"O 	c #FCF102",
"P 	c #FEF100",
"Q 	c #FEF305",
"R 	c #DAD212",
"S 	c #CBC611",
"T 	c #8B8C19",
"U 	c #9C9C9D",
"V 	c #DDDDDD",
"W 	c #445D5B",
"X 	c #67ACA8",
"Y 	c #3AA09B",
"Z 	c #60A9A4",
"` 	c #7B9D98",
" .	c #B4B028",
"..	c #F2E60F",
"+.	c #FFF203",
"@.	c #FBF401",
"#.	c #C5BE1A",
"$.	c #AAA41E",
"%.	c #A8A960",
"&.	c #A7A7A7",
"*.	c #BFC3C3",
"=.	c #6EAEAA",
"-.	c #73AFAC",
";.	c #143634",
">.	c #E9E30F",
",.	c #FDF200",
"'.	c #FFF202",
").	c #FDF205",
"!.	c #CFC81C",
"~.	c #D6CE17",
"{.	c #C3BA14",
"].	c #848386",
"^.	c #E6ECEB",
"/.	c #5FA9A5",
"(.	c #42A19D",
"_.	c #73AEAB",
":.	c #153634",
"<.	c #E9E20D",
"[.	c #FFF301",
"}.	c #FFF303",
"|.	c #FEEF07",
"1.	c #FDF004",
"2.	c #D8D212",
"3.	c #A09E6A",
"4.	c #B7BFC0",
"5.	c #4CA49F",
"6.	c #389F9B",
"7.	c #3A9F9B",
"8.	c #4EA4A0",
"9.	c #A7BEBC",
"0.	c #837F1D",
"a.	c #F1E50D",
"b.	c #FFF100",
"c.	c #FEF301",
"d.	c #FEF300",
"e.	c #FDF400",
"f.	c #FCF500",
"g.	c #D8D125",
"h.	c #465F5D",
"i.	c #3FA19C",
"j.	c #66A9A5",
"k.	c #B9C6C5",
"l.	c #202000",
"m.	c #F5ED13",
"n.	c #FEF003",
"o.	c #FDF300",
"p.	c #D7D024",
"q.	c #455E5C",
"r.	c #319F9A",
"s.	c #68A4A1",
"t.	c #2F5C5A",
"u.	c #2E2E2E",
"v.	c #39392C",
"w.	c #E6DE23",
"x.	c #ECE216",
"y.	c #EAE314",
"z.	c #ECE215",
"A.	c #ECE317",
"B.	c #F1EB10",
"C.	c #FDF201",
"D.	c #D7D025",
"E.	c #436765",
"F.	c #4AA39F",
"G.	c #7CA4A2",
"H.	c #9C9C9C",
"I.	c #FEFEFE",
"J.	c #F5F5F5",
"K.	c #090505",
"L.	c #A39E20",
"M.	c #FBF115",
"N.	c #FEF101",
"O.	c #D6D025",
"P.	c #3F726F",
"Q.	c #46A29E",
"R.	c #4F9D9A",
"S.	c #8BA9A7",
"T.	c #FAFAFA",
"U.	c #FFFFFF",
"V.	c #F7F7F7",
"W.	c #EAEAEA",
"X.	c #F7F8F8",
"Y.	c #F7F9F8",
"Z.	c #BDBCB9",
"`.	c #8F8B17",
" +	c #FBF40C",
".+	c #D7D026",
"++	c #417370",
"@+	c #4BA39F",
"#+	c #3EA09C",
"$+	c #5F9C98",
"%+	c #9FAEAD",
"&+	c #CECECE",
"*+	c #949494",
"=+	c #EBEBEB",
"-+	c #595959",
";+	c #E2E2E2",
">+	c #FCFCFC",
",+	c #FDFEFE",
"'+	c #FCFFFE",
")+	c #F3F4F2",
"!+	c #BEBFB8",
"~+	c #878519",
"{+	c #FDF101",
"]+	c #FCF202",
"^+	c #FDF203",
"/+	c #FEF102",
"(+	c #FEF004",
"_+	c #D8D026",
":+	c #416E6A",
"<+	c #52A6A1",
"[+	c #37A09B",
"}+	c #6B9C99",
"|+	c #B3B3B3",
"1+	c #F0F0F0",
"2+	c #E8E8E8",
"3+	c #232323",
"4+	c #F9F9F9",
"5+	c #FFFEFE",
"6+	c #FDFFFF",
"7+	c #CBCDCB",
"8+	c #757119",
"9+	c #FDF102",
"0+	c #FEF103",
"a+	c #FBF207",
"b+	c #A2A013",
"c+	c #D4CB1A",
"d+	c #FDEF04",
"e+	c #D1C914",
"f+	c #799A84",
"g+	c #3DA19C",
"h+	c #85B2B0",
"i+	c #A6A6A5",
"j+	c #969696",
"k+	c #959595",
"l+	c #8B8B8B",
"m+	c #F8F8F8",
"n+	c #B1B0B0",
"o+	c #E0DFDF",
"p+	c #FEFFFF",
"q+	c #CBCDCD",
"r+	c #747217",
"s+	c #FDF104",
"t+	c #FEF005",
"u+	c #FCEF0A",
"v+	c #A9A11C",
"w+	c #484612",
"x+	c #C7C016",
"y+	c #FDF206",
"z+	c #C2BD15",
"A+	c #5A9592",
"B+	c #43A19D",
"C+	c #79ABA8",
"D+	c #A7A56D",
"E+	c #B7B10F",
"F+	c #B6B10D",
"G+	c #B8B20D",
"H+	c #B3AD21",
"I+	c #A7A7A5",
"J+	c #F5F5F4",
"K+	c #C9C9C9",
"L+	c #E7E7E7",
"M+	c #FFFEFF",
"N+	c #DCDCDA",
"O+	c #A3A48A",
"P+	c #C8C01A",
"Q+	c #FEF202",
"R+	c #F9EE11",
"S+	c #A4A519",
"T+	c #AEAF21",
"U+	c #B9AF10",
"V+	c #A6A61E",
"W+	c #A6A410",
"X+	c #7F7D17",
"Y+	c #659290",
"Z+	c #48A39E",
"`+	c #739B98",
" @	c #B1AB0F",
".@	c #FEF007",
"+@	c #FEF006",
"@@	c #FEF106",
"#@	c #F4EE0F",
"$@	c #A5A12E",
"%@	c #B8B8B6",
"&@	c #C1C3C4",
"*@	c #C2C2C4",
"=@	c #B1AF93",
"-@	c #C3BB20",
";@	c #F9EF13",
">@	c #AAA321",
",@	c #EDE81B",
"'@	c #CEC522",
")@	c #608767",
"!@	c #598A87",
"~@	c #7E7E7E",
"{@	c #60928F",
"]@	c #3DA09B",
"^@	c #97B0AC",
"/@	c #A5A55E",
"(@	c #C6C415",
"_@	c #CBC014",
":@	c #CAC115",
"<@	c #CCC514",
"[@	c #F6F112",
"}@	c #928D13",
"|@	c #8B8816",
"1@	c #8B8A14",
"2@	c #8D8816",
"3@	c #C3BB1C",
"4@	c #FEF201",
"5@	c #FBF108",
"6@	c #CDCD19",
"7@	c #646115",
"8@	c #195E5B",
"9@	c #66A29F",
"0@	c #50A39F",
"a@	c #9ABDB8",
"b@	c #9F9D93",
"c@	c #564A13",
"d@	c #574912",
"e@	c #584911",
"f@	c #5C4A15",
"g@	c #D6CC20",
"h@	c #D6D110",
"i@	c #D7D310",
"j@	c #F1E70B",
"k@	c #FDF000",
"l@	c #FEF200",
"m@	c #FCEF0D",
"n@	c #928E23",
"o@	c #787617",
"p@	c #3A7C70",
"q@	c #71A3A0",
"r@	c #45A29E",
"s@	c #6DADA9",
"t@	c #918D8A",
"u@	c #8A7112",
"v@	c #BE9B11",
"w@	c #BE9A10",
"x@	c #BF9A10",
"y@	c #B79519",
"z@	c #3F330B",
"A@	c #3B300A",
"B@	c #3B3109",
"C@	c #BCB618",
"D@	c #F3EC08",
"E@	c #FEF302",
"F@	c #FFF201",
"G@	c #FDF105",
"H@	c #EAE012",
"I@	c #F5EF0B",
"J@	c #FCEE04",
"K@	c #7C9A66",
"L@	c #74A4A0",
"M@	c #41A19D",
"N@	c #768887",
"O@	c #957918",
"P@	c #C09A13",
"Q@	c #BF9A11",
"R@	c #C09818",
"S@	c #C09913",
"T@	c #695718",
"U@	c #B2B323",
"V@	c #F9ED10",
"W@	c #FCF403",
"X@	c #F6EB1A",
"Y@	c #383203",
"Z@	c #DFD92A",
"`@	c #F7EB18",
" #	c #6D9B77",
".#	c #7BA5A2",
"+#	c #7EB5B1",
"@#	c #818987",
"##	c #937A14",
"$#	c #C09B0E",
"%#	c #BF9A0F",
"&#	c #BD9B10",
"*#	c #BC9B10",
"=#	c #BB9715",
"-#	c #7F6315",
";#	c #A39F21",
">#	c #FCF112",
",#	c #FFF302",
"'#	c #F5EF18",
")#	c #605E1D",
"!#	c #71A8A5",
"~#	c #43A29D",
"{#	c #399894",
"]#	c #9E8135",
"^#	c #BA9718",
"/#	c #BE9C0D",
"(#	c #BD9A12",
"_#	c #BD9B11",
":#	c #BF9911",
"<#	c #BF9914",
"[#	c #BE9A11",
"}#	c #BC9A13",
"|#	c #B6951B",
"1#	c #897623",
"2#	c #98941B",
"3#	c #FDF00E",
"4#	c #63601A",
"5#	c #73AAA7",
"6#	c #398783",
"7#	c #A58324",
"8#	c #BC9912",
"9#	c #BE9A0F",
"0#	c #BC9A0F",
"a#	c #BD990F",
"b#	c #BF980F",
"c#	c #BE990F",
"d#	c #786118",
"e#	c #927C15",
"f#	c #8C7418",
"g#	c #8E8814",
"h#	c #64601A",
"i#	c #6CAAA5",
"j#	c #50A5A0",
"k#	c #43A29E",
"l#	c #8AB4B0",
"m#	c #848676",
"n#	c #695615",
"o#	c #6A5516",
"p#	c #6B5416",
"q#	c #695416",
"r#	c #695515",
"s#	c #6B5315",
"t#	c #6B5414",
"u#	c #362C0E",
"v#	c #8D7419",
"w#	c #8E8815",
"x#	c #FDF00F",
"y#	c #64601C",
"z#	c #67A8A4",
"A#	c #4FA4A0",
"B#	c #56A4A0",
"C#	c #7AA9A6",
"D#	c #98B1B2",
"E#	c #869898",
"F#	c #453B10",
"G#	c #937714",
"H#	c #937613",
"I#	c #927613",
"J#	c #927614",
"K#	c #AE8A19",
"L#	c #8B751B",
"M#	c #8E8816",
"N#	c #60673A",
"O#	c #4EA39E",
"P#	c #3FA09C",
"Q#	c #77AFAB",
"R#	c #9B9A90",
"S#	c #907616",
"T#	c #BF9910",
"U#	c #BD9A10",
"V#	c #BD9A0E",
"W#	c #9F8417",
"X#	c #938821",
"Y#	c #CAC312",
"Z#	c #606839",
"`#	c #7DAFAB",
" $	c #41A19C",
".$	c #464C36",
"+$	c #BC9A14",
"@$	c #BD9913",
"#$	c #BC9A10",
"$$	c #BC9B12",
"%$	c #80651C",
"&$	c #A59F1C",
"*$	c #65601B",
"=$	c #93B7B4",
"-$	c #4CA39F",
";$	c #5CA6A2",
">$	c #698D87",
",$	c #9B8118",
"'$	c #BD9915",
")$	c #BD9B0F",
"!$	c #A78817",
"~$	c #8A7A22",
"{$	c #BEB61A",
"]$	c #FDEF0E",
"^$	c #97AAA7",
"/$	c #62A9A5",
"($	c #58A7A2",
"_$	c #A0B8B7",
":$	c #150E01",
"<$	c #A68A24",
"[$	c #AD891D",
"}$	c #AD8C20",
"|$	c #766E1E",
"1$	c #C8BE1D",
"2$	c #FDF009",
"3$	c #FAEF09",
"4$	c #E1DA1C",
"5$	c #E2D723",
"6$	c #7C7B5E",
"7$	c #5D7370",
"8$	c #6EA5A2",
"9$	c #61A9A5",
"0$	c #5BA5A0",
"a$	c #222223",
"b$	c #030506",
"c$	c #282406",
"d$	c #2A2604",
"e$	c #2A2502",
"f$	c #CEC61B",
"g$	c #FFF307",
"h$	c #FDF302",
"i$	c #F8EF03",
"j$	c #DDDB1D",
"k$	c #292827",
"l$	c #272729",
"m$	c #FFFFFC",
"n$	c #9E9E9D",
"o$	c #A6ACAB",
"p$	c #7DB4B1",
"q$	c #5DA9A4",
"r$	c #6DA8A4",
"s$	c #698D8A",
"t$	c #E9E9EA",
"u$	c #212003",
"v$	c #F6EE1E",
"w$	c #FDF40F",
"x$	c #FDF413",
"y$	c #FEF309",
"z$	c #FBF10B",
"A$	c #F8F10B",
"B$	c #C9C319",
"C$	c #2C292F",
"D$	c #FEFDFC",
"E$	c #9E9E9E",
"F$	c #ABABAB",
"G$	c #C4D7D6",
"H$	c #6F9A98",
"I$	c #195451",
"J$	c #979898",
"K$	c #F6FAF7",
"L$	c #E7E8E7",
"M$	c #211F01",
"N$	c #F7ED17",
"O$	c #FFF305",
"P$	c #A8A01B",
"Q$	c #161200",
"R$	c #8D8C89",
"S$	c #F7F6F7",
"T$	c #899997",
"U$	c #77B1AE",
"V$	c #949A9A",
"W$	c #A4A3A4",
"X$	c #EFEEEE",
"Y$	c #FEFEFD",
"Z$	c #231E01",
"`$	c #F6ED16",
" %	c #FBF102",
".%	c #FCF101",
"+%	c #9A9513",
"@%	c #313008",
"#%	c #979797",
"$%	c #EEEDEE",
"%%	c #E6EEED",
"&%	c #5C9A97",
"*%	c #72A7A4",
"=%	c #98BEBB",
"-%	c #89ABA9",
";%	c #859191",
">%	c #45A19D",
",%	c #3BA09A",
"'%	c #349F99",
". + @ + + + + # # # + $ % + + + + + + + + + + + # + + + # & * = # # + + - + + & ",
"# + + + + + + + # + + + + + + # # + + + $ # + + ; > , ' ) ! # ~ { + + + ~ + + ; ",
"+ + + + + + + + + + + # + + + + + + + + + + + ] ^ / ( _ : < [ ; + + + + + + + & ",
"+ + + + + + + + + # + + + + + + + # ) } | 1 2 3 4 5 6 7 8 9 0 a + + + + + + + b ",
"+ + + + + + + + + + + # + + + + + b c d e f g h i j k l m n o p q # + + + + + ! ",
"+ + + + + + + + + + + + + + + # r s t u v w x y y z A B C D E F G H + + + + # + ",
"+ + + + + + + + + + + + + $ > I J K L M N O P P P P Q R S T U V W X + + + + # + ",
"# + + + + + + + + + + Y + + Z `  ...P P P P P P P P +.@.#.$.%.&.*.=.+ + + + $ + ",
"# + + + + + = + + + + + + } -.;.>.,.P P P P P P P P '.).!.~.{.].^./.+ + + + = + ",
"# + + + + # + + + + + + + (._.:.<.P P P P P P P P P [.}.|.1.2.3.4.5.+ + + + ) + ",
"= + + + + + + + + + 6.7.Y 8.9.0.a.b.P P P P P P P P c.[.d.e.f.g.h.} + + + + ! + ",
". + + + + + + + + + & i.j.k.l.m.n.P P P P P P P P P P P P o.,.p.q.[ + + + + # + ",
"= + + + + + + $ + r.- s.t.u.v.w.x.y.z.A.B.C.P P P P P P P ,.C.D.E.8.+ + + + + # ",
"+ + + + + + + # # F.G.H.I.I.J.K._ _ _ _ L.M.N.P P P P P P ,.C.O.P.Q.+ + + + + + ",
"+ + + + + + + # , R.S.T.U.U.V.8 W.X.Y.X.Z.`. +C.P P P P P ,.C..+++@++ + + + + + ",
"+ + + + + + + b #+$+%+&+*+=+-+;+>+,+'+'+)+!+~+{+P ,.]+^+/+/+(+_+:+<++ + + + + + ",
"+ + + + + + + r.[+}+|+1+;+2+3+4+U.5+U.6+6+7+8+9+0+9+a+b+c+d+e+f++ > + + + + # $ ",
"+ + + + + + + ' g+h+i+j+k+l+3+m+U.n+o+U.p+q+r+s+t+u+v+w+x+y+z+A++ + + + + + + b ",
"+ + + + + + # } B+C+D+E+F+G+H+I+J+K+L+M+N+O+P+Q+R+S+T+U+V+W+X+Y+) + + + + + + (.",
"+ + + + + + # Y Z+`+ @.@+@@@#@$@%@&@&@*@=@-@N.[.;@>@,@'@)@!@~@{@; + + + + + + > ",
"+ + + + + + # B+]@^@/@(@_@:@<@[@}@|@1@2@3@/+4@[.}.5@6@7@8@9@0@# $ + + + + + + . ",
"+ + + + + + $ ' [ a@b@c@d@e@f@g@h@i@j@k@l@[.[.[./+m@n@o@p@q@r@+ + + + + + + + * ",
"+ + + + + + # ]@s@t@u@v@w@x@y@z@A@B@C@D@E@[.[.F@G@H@I@J@K@L@* + + + + + + + + . ",
"+ + + + + + ) M@N@O@P@x@x@x@Q@R@P@S@T@U@V@W@[.P X@Y@Z@`@ #.#i.+ + + + + + + + ]@",
"+ + # + + + = +#@###$#%#x@%#&#*#w@w@=#-#;#>#,#P ^+'#)#_ !#~## + + + + + + + + ~#",
"+ + ! + + + ]@{#]#^#/#&#(#_#:#S@<#[#}#|#1#2#E@/+,.3#4#5#i.+ + + + + + $ + + + ] ",
"+ + $ + + + #+6#7#8#9#%#0#0#0#a#b#c#d#e#f#g#c.N.,.3#h#i#r.+ + + + + + $ + + + j#",
"+ + + # + + k#l#m#n#o#p#q#r#r#r#s#t#u#v#v#w#d.P ,.x#y#z#! + + + + + + # + + + A#",
"+ + + $ + + [ [ B#C#D#E#F#G#H#H#H#I#J#K#L#M#d.P ,.x#N#O#@ + + # + # + + + + + 8.",
"+ + + ' + + # + , , P#Q#R#S#T#U#V#V#U#W#X#Y#d.P ,.3#Z#`#= + + + + + + + + + + + ",
"+ + + # + + + # ! ' +  $`#.$+$@$U##$$$%$&$0+c.P ,.x#*$=$-$+ + + + + # + + + + + ",
"+ + + + + + + + , $ ) & ;$>$,$'$9#)$!$~${$c.c.,.,.]$4#^$/$; + + + + + + + + + + ",
"+ + + + + + + ' * # # ~ ($_$:$<$[$}$|$1$2$c.c.3$4$5$6$7$8$9$[++ + + + + + + + + ",
"+ + + + + + + ) & + ) 1 0$a$b$c$d$e$f$g$h$i$j@j$k$l$W.m$n$o$p$) + + + + + + + + ",
"+ + + + + + + + & Y q$r$s$t$u$v$w$x$y$z$A$B$_ C$D$U.U.U.E$F$G$* # + + + + + + + ",
"+ + + + + + + + Y H$I$J$K$L$M$N$N.P O$P$Q$R$S$V.I.U.U.I.E$_ T$U$# + + + + + + + ",
"+ + + + + + + + ] V$W$X$Y$2+Z$`$ %.%+%@%#%$%M+U.U.U.%%&%*%=%-%;%Z++ + + + + + + ",
"+ + + + + + + + [ >%[ Y  $(.} ,%'%$ = ) b & # + + $ $ + + $ Y + Y + + + + + + + ",
"~ i.# + + $ + # # $ , & + + + # & # + + + + + # # + + + + + # # + + + + + + + + ",
"+ + + + + + + + + + + + + + + + + + + + + + + + + + + + + + + + + + + + + + + + "};
