/* XPM */
static char * homer_xpm[] = {
"40 40 567 2",
"  	c None",
". 	c #359F9A",
"+ 	c #309E99",
"@ 	c #47A29E",
"# 	c #319E99",
"$ 	c #349F9A",
"% 	c #389F9A",
"& 	c #349E99",
"* 	c #329E99",
"= 	c #319E9A",
"- 	c #3DA09C",
"; 	c #339E99",
"> 	c #339E9A",
", 	c #329E9A",
"' 	c #329F9A",
") 	c #339F9A",
"! 	c #379F9A",
"~ 	c #369F9A",
"{ 	c #40A19C",
"] 	c #3BA09B",
"^ 	c #53A09C",
"/ 	c #104542",
"( 	c #000000",
"_ 	c #1C1C1C",
": 	c #2D2D2D",
"< 	c #AFCBC9",
"[ 	c #49A39E",
"} 	c #39A09B",
"| 	c #6FAFAB",
"1 	c #719B99",
"2 	c #052322",
"3 	c #010101",
"4 	c #7D7D7D",
"5 	c #F6F6F6",
"6 	c #EEEEEE",
"7 	c #030303",
"8 	c #D9DFDF",
"9 	c #9BC2BF",
"0 	c #51A5A1",
"a 	c #67ACA7",
"b 	c #3CA09B",
"c 	c #66ABA8",
"d 	c #529A96",
"e 	c #1E1E1E",
"f 	c #A8A8A8",
"g 	c #EDEDED",
"h 	c #CAC9CA",
"i 	c #3C3B3F",
"j 	c #39393B",
"k 	c #030304",
"l 	c #343436",
"m 	c #363637",
"n 	c #363636",
"o 	c #99B2B0",
"p 	c #57A7A2",
"q 	c #3EA19C",
"r 	c #59A7A3",
"s 	c #459A96",
"t 	c #B5C2C1",
"u 	c #8A8A8A",
"v 	c #525252",
"w 	c #797979",
"x 	c #959065",
"y 	c #DDDB15",
"z 	c #E2D910",
"A 	c #E2D812",
"B 	c #E2D811",
"C 	c #E0D913",
"D 	c #A6A35C",
"E 	c #727272",
"F 	c #737374",
"G 	c #9A999A",
"H 	c #95BDBB",
"I 	c #67ACA8",
"J 	c #445D5B",
"K 	c #DDDDDD",
"L 	c #9C9C9D",
"M 	c #8B8C19",
"N 	c #CBC611",
"O 	c #DAD212",
"P 	c #FEF305",
"Q 	c #FEF100",
"R 	c #FCF102",
"S 	c #E2D911",
"T 	c #CFC512",
"U 	c #CDC612",
"V 	c #BEBB41",
"W 	c #8A8F8F",
"X 	c #86B8B5",
"Y 	c #6EAEAA",
"Z 	c #BFC3C3",
"` 	c #A7A7A7",
" .	c #A8A960",
"..	c #AAA41E",
"+.	c #C5BE1A",
"@.	c #FBF401",
"#.	c #FFF203",
"$.	c #F2E60F",
"%.	c #B4B028",
"&.	c #7B9D98",
"*.	c #60A9A4",
"=.	c #3AA09B",
"-.	c #5FA9A5",
";.	c #E6ECEB",
">.	c #848386",
",.	c #C3BA14",
"'.	c #D6CE17",
").	c #CFC81C",
"!.	c #FDF205",
"~.	c #FFF202",
"{.	c #FDF200",
"].	c #E9E30F",
"^.	c #143634",
"/.	c #73AFAC",
"(.	c #4CA49F",
"_.	c #B7BFC0",
":.	c #A09E6A",
"<.	c #D8D212",
"[.	c #FDF004",
"}.	c #FEEF07",
"|.	c #FFF303",
"1.	c #FFF301",
"2.	c #E9E20D",
"3.	c #153634",
"4.	c #73AEAB",
"5.	c #42A19D",
"6.	c #465F5D",
"7.	c #D8D125",
"8.	c #FCF500",
"9.	c #FDF400",
"0.	c #FEF300",
"a.	c #FEF301",
"b.	c #FFF100",
"c.	c #F1E50D",
"d.	c #837F1D",
"e.	c #A7BEBC",
"f.	c #4EA4A0",
"g.	c #3A9F9B",
"h.	c #389F9B",
"i.	c #455E5C",
"j.	c #D7D024",
"k.	c #FDF300",
"l.	c #FEF003",
"m.	c #F5ED13",
"n.	c #202000",
"o.	c #B9C6C5",
"p.	c #66A9A5",
"q.	c #3FA19C",
"r.	c #436765",
"s.	c #D7D025",
"t.	c #FDF201",
"u.	c #F1EB10",
"v.	c #ECE317",
"w.	c #ECE215",
"x.	c #EAE314",
"y.	c #ECE216",
"z.	c #E6DE23",
"A.	c #39392C",
"B.	c #2E2E2E",
"C.	c #2F5C5A",
"D.	c #68A4A1",
"E.	c #319F9A",
"F.	c #46A29E",
"G.	c #3F726F",
"H.	c #D6D025",
"I.	c #FEF101",
"J.	c #FBF115",
"K.	c #A39E20",
"L.	c #090505",
"M.	c #F5F5F5",
"N.	c #FEFEFE",
"O.	c #9C9C9C",
"P.	c #7CA4A2",
"Q.	c #4AA39F",
"R.	c #4BA39F",
"S.	c #417370",
"T.	c #D7D026",
"U.	c #FBF40C",
"V.	c #8F8B17",
"W.	c #BDBCB9",
"X.	c #F7F8F8",
"Y.	c #F7F9F8",
"Z.	c #EAEAEA",
"`.	c #F7F7F7",
" +	c #FFFFFF",
".+	c #FAFAFA",
"++	c #8BA9A7",
"@+	c #4F9D9A",
"#+	c #52A6A1",
"$+	c #416E6A",
"%+	c #D8D026",
"&+	c #FEF004",
"*+	c #FEF102",
"=+	c #FDF203",
"-+	c #FCF202",
";+	c #FDF101",
">+	c #878519",
",+	c #BEBFB8",
"'+	c #F3F4F2",
")+	c #FCFFFE",
"!+	c #FDFEFE",
"~+	c #FCFCFC",
"{+	c #E2E2E2",
"]+	c #595959",
"^+	c #EBEBEB",
"/+	c #949494",
"(+	c #CECECE",
"_+	c #9FAEAD",
":+	c #5F9C98",
"<+	c #3EA09C",
"[+	c #799A84",
"}+	c #D1C914",
"|+	c #FDEF04",
"1+	c #D4CB1A",
"2+	c #A2A013",
"3+	c #FBF207",
"4+	c #FDF102",
"5+	c #FEF103",
"6+	c #757119",
"7+	c #CBCDCB",
"8+	c #FDFFFF",
"9+	c #FFFEFE",
"0+	c #F9F9F9",
"a+	c #232323",
"b+	c #E8E8E8",
"c+	c #F0F0F0",
"d+	c #B3B3B3",
"e+	c #6B9C99",
"f+	c #37A09B",
"g+	c #5A9592",
"h+	c #C2BD15",
"i+	c #FDF206",
"j+	c #C7C016",
"k+	c #484612",
"l+	c #A9A11C",
"m+	c #FCEF0A",
"n+	c #FEF005",
"o+	c #FDF104",
"p+	c #747217",
"q+	c #CBCDCD",
"r+	c #FEFFFF",
"s+	c #E0DFDF",
"t+	c #B1B0B0",
"u+	c #F8F8F8",
"v+	c #8B8B8B",
"w+	c #959595",
"x+	c #969696",
"y+	c #A6A6A5",
"z+	c #85B2B0",
"A+	c #3DA19C",
"B+	c #659290",
"C+	c #7F7D17",
"D+	c #A6A410",
"E+	c #A6A61E",
"F+	c #B9AF10",
"G+	c #AEAF21",
"H+	c #A4A519",
"I+	c #F9EE11",
"J+	c #FEF202",
"K+	c #C8C01A",
"L+	c #A3A48A",
"M+	c #DCDCDA",
"N+	c #FFFEFF",
"O+	c #E7E7E7",
"P+	c #C9C9C9",
"Q+	c #F5F5F4",
"R+	c #A7A7A5",
"S+	c #B3AD21",
"T+	c #B8B20D",
"U+	c #B6B10D",
"V+	c #B7B10F",
"W+	c #A7A56D",
"X+	c #79ABA8",
"Y+	c #43A19D",
"Z+	c #60928F",
"`+	c #7E7E7E",
" @	c #598A87",
".@	c #608767",
"+@	c #CEC522",
"@@	c #EDE81B",
"#@	c #AAA321",
"$@	c #F9EF13",
"%@	c #C3BB20",
"&@	c #B1AF93",
"*@	c #C2C2C4",
"=@	c #C1C3C4",
"-@	c #B8B8B6",
";@	c #A5A12E",
">@	c #F4EE0F",
",@	c #FEF106",
"'@	c #FEF006",
")@	c #FEF007",
"!@	c #B1AB0F",
"~@	c #739B98",
"{@	c #48A39E",
"]@	c #50A39F",
"^@	c #66A29F",
"/@	c #195E5B",
"(@	c #646115",
"_@	c #CDCD19",
":@	c #FBF108",
"<@	c #FEF201",
"[@	c #C3BB1C",
"}@	c #8D8816",
"|@	c #8B8A14",
"1@	c #8B8816",
"2@	c #928D13",
"3@	c #F6F112",
"4@	c #CCC514",
"5@	c #CAC115",
"6@	c #CBC014",
"7@	c #C6C415",
"8@	c #A5A55E",
"9@	c #97B0AC",
"0@	c #3DA09B",
"a@	c #45A29E",
"b@	c #71A3A0",
"c@	c #3A7C70",
"d@	c #787617",
"e@	c #928E23",
"f@	c #FCEF0D",
"g@	c #FEF200",
"h@	c #FDF000",
"i@	c #F1E70B",
"j@	c #D7D310",
"k@	c #D6D110",
"l@	c #D6CC20",
"m@	c #5C4A15",
"n@	c #584911",
"o@	c #574912",
"p@	c #564A13",
"q@	c #9F9D93",
"r@	c #9ABDB8",
"s@	c #74A4A0",
"t@	c #7C9A66",
"u@	c #FCEE04",
"v@	c #F5EF0B",
"w@	c #EAE012",
"x@	c #FDF105",
"y@	c #FFF201",
"z@	c #FEF302",
"A@	c #F3EC08",
"B@	c #BCB618",
"C@	c #3B3109",
"D@	c #3B300A",
"E@	c #3F330B",
"F@	c #B79519",
"G@	c #BF9A10",
"H@	c #BE9A10",
"I@	c #BE9B11",
"J@	c #8A7112",
"K@	c #918D8A",
"L@	c #6DADA9",
"M@	c #7BA5A2",
"N@	c #6D9B77",
"O@	c #F7EB18",
"P@	c #DFD92A",
"Q@	c #383203",
"R@	c #F6EB1A",
"S@	c #FCF403",
"T@	c #F9ED10",
"U@	c #B2B323",
"V@	c #695718",
"W@	c #C09913",
"X@	c #C09A13",
"Y@	c #C09818",
"Z@	c #BF9A11",
"`@	c #957918",
" #	c #768887",
".#	c #41A19D",
"+#	c #43A29D",
"@#	c #71A8A5",
"##	c #605E1D",
"$#	c #F5EF18",
"%#	c #FFF302",
"&#	c #FCF112",
"*#	c #A39F21",
"=#	c #7F6315",
"-#	c #BB9715",
";#	c #BC9B10",
">#	c #BD9B10",
",#	c #BF9A0F",
"'#	c #C09B0E",
")#	c #937A14",
"!#	c #818987",
"~#	c #7EB5B1",
"{#	c #73AAA7",
"]#	c #63601A",
"^#	c #FDF00E",
"/#	c #98941B",
"(#	c #897623",
"_#	c #B6951B",
":#	c #BC9A13",
"<#	c #BE9A11",
"[#	c #BF9914",
"}#	c #BF9911",
"|#	c #BD9B11",
"1#	c #BD9A12",
"2#	c #BE9C0D",
"3#	c #BA9718",
"4#	c #9E8135",
"5#	c #399894",
"6#	c #50A5A0",
"7#	c #6CAAA5",
"8#	c #64601A",
"9#	c #8E8814",
"0#	c #8C7418",
"a#	c #927C15",
"b#	c #786118",
"c#	c #BE990F",
"d#	c #BF980F",
"e#	c #BD990F",
"f#	c #BC9A0F",
"g#	c #BE9A0F",
"h#	c #BC9912",
"i#	c #A58324",
"j#	c #398783",
"k#	c #4FA4A0",
"l#	c #67A8A4",
"m#	c #64601C",
"n#	c #FDF00F",
"o#	c #8E8815",
"p#	c #8D7419",
"q#	c #362C0E",
"r#	c #6B5414",
"s#	c #6B5315",
"t#	c #695515",
"u#	c #695416",
"v#	c #6B5416",
"w#	c #6A5516",
"x#	c #695615",
"y#	c #848676",
"z#	c #8AB4B0",
"A#	c #43A29E",
"B#	c #4EA39E",
"C#	c #60673A",
"D#	c #8E8816",
"E#	c #8B751B",
"F#	c #AE8A19",
"G#	c #927614",
"H#	c #927613",
"I#	c #937613",
"J#	c #937714",
"K#	c #453B10",
"L#	c #869898",
"M#	c #98B1B2",
"N#	c #7AA9A6",
"O#	c #56A4A0",
"P#	c #7DAFAB",
"Q#	c #606839",
"R#	c #CAC312",
"S#	c #938821",
"T#	c #9F8417",
"U#	c #BD9A10",
"V#	c #BD9A0E",
"W#	c #BF9910",
"X#	c #907616",
"Y#	c #9B9A90",
"Z#	c #77AFAB",
"`#	c #3FA09C",
" $	c #4CA39F",
".$	c #93B7B4",
"+$	c #65601B",
"@$	c #A59F1C",
"#$	c #80651C",
"$$	c #BC9B12",
"%$	c #BC9A10",
"&$	c #BD9913",
"*$	c #BC9A14",
"=$	c #464C36",
"-$	c #41A19C",
";$	c #62A9A5",
">$	c #97AAA7",
",$	c #FDEF0E",
"'$	c #BEB61A",
")$	c #8A7A22",
"!$	c #A78817",
"~$	c #BD9B0F",
"{$	c #BD9915",
"]$	c #9B8118",
"^$	c #698D87",
"/$	c #5CA6A2",
"($	c #61A9A5",
"_$	c #6EA5A2",
":$	c #5D7370",
"<$	c #7C7B5E",
"[$	c #E2D723",
"}$	c #E1DA1C",
"|$	c #FAEF09",
"1$	c #FDF009",
"2$	c #C8BE1D",
"3$	c #766E1E",
"4$	c #AD8C20",
"5$	c #AD891D",
"6$	c #A68A24",
"7$	c #150E01",
"8$	c #A0B8B7",
"9$	c #58A7A2",
"0$	c #7DB4B1",
"a$	c #A6ACAB",
"b$	c #9E9E9D",
"c$	c #FFFFFC",
"d$	c #272729",
"e$	c #292827",
"f$	c #DDDB1D",
"g$	c #F8EF03",
"h$	c #FDF302",
"i$	c #FFF307",
"j$	c #CEC61B",
"k$	c #2A2502",
"l$	c #2A2604",
"m$	c #282406",
"n$	c #030506",
"o$	c #222223",
"p$	c #5BA5A0",
"q$	c #C4D7D6",
"r$	c #ABABAB",
"s$	c #9E9E9E",
"t$	c #FEFDFC",
"u$	c #2C292F",
"v$	c #C9C319",
"w$	c #F8F10B",
"x$	c #FBF10B",
"y$	c #FEF309",
"z$	c #FDF413",
"A$	c #FDF40F",
"B$	c #F6EE1E",
"C$	c #212003",
"D$	c #E9E9EA",
"E$	c #698D8A",
"F$	c #6DA8A4",
"G$	c #5DA9A4",
"H$	c #77B1AE",
"I$	c #899997",
"J$	c #F7F6F7",
"K$	c #8D8C89",
"L$	c #161200",
"M$	c #A8A01B",
"N$	c #FFF305",
"O$	c #F7ED17",
"P$	c #211F01",
"Q$	c #E7E8E7",
"R$	c #F6FAF7",
"S$	c #979898",
"T$	c #195451",
"U$	c #6F9A98",
"V$	c #859191",
"W$	c #89ABA9",
"X$	c #98BEBB",
"Y$	c #72A7A4",
"Z$	c #5C9A97",
"`$	c #E6EEED",
" %	c #EEEDEE",
".%	c #979797",
"+%	c #313008",
"@%	c #9A9513",
"#%	c #FCF101",
"$%	c #FBF102",
"%%	c #F6ED16",
"&%	c #231E01",
"*%	c #FEFEFD",
"=%	c #EFEEEE",
"-%	c #A4A3A4",
";%	c #949A9A",
">%	c #349F99",
",%	c #3BA09A",
"'%	c #45A19D",
". + + @ + + # # $ % . # + + + # + + + + + + + + + + + & * + # # # + + + + = + - ",
"; + + > + + + , > # ' ) ! ~ { ; + + # * + + + # # + + + + + + # + + + + + + + # ",
". + + + + + + + ; ] ^ / ( _ : < [ + + + + + + + + + + + # + + + + + + + + + + + ",
"} + + + + + + + | 1 2 3 4 5 6 7 8 9 0 a b ) # + + + + + + + # + + + + + + + + + ",
"' + + + + + # c d e f g h i j k l m n o p q } + + + + + # + + + + + + + + + + + ",
"+ # + + + + r s t u v w x y z A A B C D E F G H # + + + + + + + + + + + + + + + ",
"+ # + + + + I J K L M N O P Q Q Q Q R S T U V W X { * + + + + + + + + + + + + + ",
"+ * + + + + Y Z `  ...+.@.#.Q Q Q Q Q Q Q Q $.%.&.*.+ + =.+ + + + + + + + + + # ",
"+ $ + + + + -.;.>.,.'.).!.~.Q Q Q Q Q Q Q Q {.].^./.b + + + + + + $ + + + + + # ",
"+ ) + + + + (._.:.<.[.}.|.1.Q Q Q Q Q Q Q Q Q 2.3.4.5.+ + + + + + + # + + + + # ",
"+ ' + + + + b 6.7.8.9.0.1.a.Q Q Q Q Q Q Q Q b.c.d.e.f.=.g.h.+ + + + + + + + + $ ",
"+ # + + + + ] i.j.{.k.Q Q Q Q Q Q Q Q Q Q Q Q l.m.n.o.p.q.. + + + + + + + + + - ",
"# + + + + + f.r.s.t.{.Q Q Q Q Q Q Q t.u.v.w.x.y.z.A.B.C.D.@ E.+ * + + + + + + $ ",
"+ + + + + + F.G.H.t.{.Q Q Q Q Q Q I.J.K.( ( ( ( L.M.N.N.O.P.Q.# # + + + + + + + ",
"+ + + + + + R.S.T.t.{.Q Q Q Q Q t.U.V.W.X.Y.X.Z.3 `. + +.+++@+~ # + + + + + + + ",
"+ + + + + + #+$+%+&+*+*+=+-+{.Q ;+>+,+'+)+)+!+~+{+]+^+/+(+_+:+<+} + + + + + + + ",
"* # + + + + { + [+}+|+1+2+3+4+5+4+6+7+8+8+ +9+ +0+a+b+{+c+d+e+f+E.+ + + + + + + ",
"} + + + + + + + g+h+i+j+k+l+m+n+o+p+q+r+ +s+t+ +u+a+v+w+x+y+z+A+! + + + + + + + ",
"5.+ + + + + + ) B+C+D+E+F+G+H+I+J+K+L+M+N+O+P+Q+R+S+T+U+V+W+X+Y+b # + + + + + + ",
"{ + + + + + + ; Z+`+ @.@+@@@#@$@1.I.%@&@*@=@=@-@;@>@,@'@)@!@~@{@=.# + + + + + + ",
"- + + + + + + * # ]@^@/@(@_@:@|.1.<@*+[@}@|@1@2@3@4@5@6@7@8@9@0@Y+# + + + + + + ",
"% + + + + + + + + a@b@c@d@e@f@*+1.1.1.g@h@i@j@k@l@m@n@o@p@q@r@] ! * + + + + + + ",
"- + + + + + + + + % s@t@u@v@w@x@y@1.1.z@A@B@C@D@E@F@G@H@I@J@K@L@0@# + + + + + + ",
"0@+ + + + + + + + q.M@N@O@P@Q@R@Q 1.S@T@U@V@W@X@Y@Z@G@G@G@X@`@ #.#) + + + + + + ",
"+#+ + + + + + + + # +#@#( ##$#=+Q %#&#*#=#-#H@H@;#>#,#G@,#'#)#!#~#$ + + + # + + ",
"[ + + + * + + + + + + q.{#]#^#{.*+z@/#(#_#:#<#[#W@}#|#1#>#2#3#4#5#0@+ + + ' + + ",
"6#+ + + * + + + + + + E.7#8#^#{.I.a.9#0#a#b#c#d#e#f#f#f#,#g#h#i#j#<++ + + * + + ",
"k#+ + + # + + + + + + ' l#m#n#{.Q 0.o#p#p#q#r#s#t#t#t#u#v#w#x#y#z#A#+ + # + + + ",
"f.+ + + + + # + # + + = B#C#n#{.Q 0.D#E#F#G#H#I#I#I#J#K#L#M#N#O#] ] + + * + + + ",
"+ + + + + + + + + + + $ P#Q#^#{.Q 0.R#S#T#U#V#V#U#W#X#Y#Z#`#~ ~ + # + + ! + + + ",
"+ + + + + # + + + + +  $.$+$n#{.Q a.5+@$#$$$%$U#&$*$=$P#-$+ ! ' # + + + # + + + ",
"+ + + + + + + + + + ; ;$>$]#,${.{.a.a.'$)$!$~$g#{$]$^$/$. ) * ~ + + + + + + + + ",
"+ + + + + + + + + f+($_$:$<$[$}$|$a.a.1$2$3$4$5$6$7$8$9$> # # % ! + + + + + + + ",
"+ + + + + + + + ) 0$a$b$c$Z.d$e$f$i@g$h$i$j$k$l$m$n$o$p$0 ) + . ) + + + + + + + ",
"+ + + + + + + # % q$r$s$ + + +t$u$( v$w$x$y$z$A$B$C$D$E$F$G$=.. + + + + + + + + ",
"+ + + + + + + # H$I$( s$N. + +N.`.J$K$L$M$N$Q I.O$P$Q$R$S$T$U$=.+ + + + + + + + ",
"+ + + + + + + {@V$W$X$Y$Z$`$ + + +N+ %.%+%@%#%$%%%&%b+*%=%-%;%[ + + + + + + + + ",
"+ + + + + + + =.+ =.* + + * * + + # . } ) $ * >%,%b 5.-$=.] '%] + + + + + + + + ",
"+ + + + + + + + # # + + + + + # # + + + + + # . # + + + . ~ * # # + * + + # q.> ",
"+ + + + + + + + + + + + + + + + + + + + + + + + + + + + + + + + + + + + + + + + "};
